<svg aria-hidden="true" viewBox="0 0 100 100" fill="none" xmlns="http://www.w3.org/2000/svg">
<path fill-rule="evenodd" clip-rule="evenodd" d="M81.5742 0C91.75 0.000118652 99.9998 8.28792 100 18.5117V81.4883C99.9999 91.7121 91.75 99.9999 81.5742 100H18.4258C8.24995 99.9999 0.00011772 91.7121 0 81.4883V18.5117C0.000158573 8.2879 8.248 9.29416e-05 18.4238 0H81.5742ZM8.89648 52.1309C8.28761 52.1309 7.9834 52.7405 7.9834 53.0449V54.2627C7.9834 54.5671 7.98325 54.871 8.5918 54.8711C26.5555 59.4381 40.5619 73.4445 45.1289 91.4082L46.042 92.0166H46.9551C47.2595 92.0166 47.5644 91.7124 47.5645 91.1035V53.0449C47.5645 52.7405 47.564 52.1309 46.9551 52.1309H8.89648ZM52.4355 53.0449V91.1035C52.4355 91.7124 52.436 92.0166 53.0449 92.0166H54.2627L54.8711 91.4082C59.7426 73.4445 73.4445 59.4381 91.4082 54.8711L92.0166 53.958V53.0449C92.0166 52.7405 91.7124 52.1309 91.1035 52.1309H53.0449L52.4355 53.0449ZM45.7373 7.9834C45.4329 7.9834 45.129 7.98325 45.1289 8.5918C40.2574 26.251 26.251 40.5619 8.5918 45.1289L7.9834 46.042V46.9551C7.9834 47.2595 8.28761 47.5644 8.89648 47.5645H46.9551C47.2595 47.5645 47.5645 47.564 47.5645 46.9551V8.89648C47.5645 8.28761 47.564 7.9834 46.9551 7.9834H45.7373ZM52.7402 7.9834C52.4358 7.9834 52.1309 8.28761 52.1309 8.89648V46.9551C52.1309 47.2595 52.1313 47.5645 52.7402 47.5645H91.1035C91.7124 47.5645 92.0166 47.564 92.0166 46.9551V45.7373C92.0166 45.4329 92.0167 45.129 91.4082 45.1289C73.4445 40.2574 59.4381 26.5555 54.8711 8.5918L53.6533 7.9834H52.7402Z"/>
</svg>
