<svg viewBox="0 0 100 100" fill="none" xmlns="http://www.w3.org/2000/svg">
<path d="M81.5742 0C91.75 0.000118652 99.9998 8.28792 100 18.5117V81.4883C99.9999 91.7121 91.75 99.9999 81.5742 100H18.4258C8.24995 99.9999 0.00011772 91.7121 0 81.4883V18.5117C0.000158573 8.2879 8.248 9.29416e-05 18.4238 0H81.5742ZM50.6416 7.9834C27.0528 7.9834 7.98355 27.1929 7.9834 50.958C7.9834 69.9548 20.2013 86.0351 37.1514 91.7266C39.2706 92.1544 40.0469 90.8018 40.0469 89.6641C40.0469 88.6672 39.9766 85.2529 39.9766 81.6953C28.1479 84.2488 25.6552 76.6203 25.6396 76.5723C23.7454 71.6251 20.9447 70.3287 20.9072 70.3115C17.0419 67.6915 21.1501 67.6788 21.1895 67.6787C25.4851 67.9625 27.7456 72.0659 27.7588 72.0898C31.572 78.6352 37.7165 76.7861 40.1885 75.6475C40.5412 72.8728 41.6716 70.9519 42.8721 69.8848C33.4078 68.8884 23.4502 65.1879 23.4502 48.6807C23.4503 43.985 25.1442 40.1432 27.8281 37.1553C27.4046 36.0883 25.9215 31.6758 28.2529 25.7705C28.2735 25.7641 31.8784 24.6476 39.9766 30.1816C43.4535 29.241 47.0397 28.7628 50.6416 28.7588C54.2433 28.7588 57.9153 29.257 61.3057 30.1816C69.3995 24.6513 73.0044 25.7627 73.0293 25.7705C75.3607 31.6758 73.8766 36.0883 73.4531 37.1553C76.2078 40.1432 77.8319 43.985 77.832 48.6807C77.832 65.1881 67.874 68.8169 58.3389 69.8848C59.893 71.2364 61.2343 73.797 61.2344 77.8525C61.2344 83.6155 61.165 88.2417 61.165 89.6641C61.1652 90.8026 61.9425 92.1545 64.0605 91.7275C81.0104 86.0343 93.2285 69.9547 93.2285 50.958C93.2982 27.193 74.1595 7.98365 50.6416 7.9834Z"/>
</svg>
