<svg  viewBox="0 0 2000 1600" fill="none" xmlns="http://www.w3.org/2000/svg">
<mask id="mask0_1211_75385" style="mask-type:alpha" maskUnits="userSpaceOnUse" x="0" y="0" >
<rect  fill="url(#paint0_linear_1211_75385)"/>
</mask>
<g mask="url(#mask0_1211_75385)">
<path d="M0 524.841C71.3887 468.708 147.724 417.961 231.313 395.606C314.737 373.415 406.735 382.879 473.837 439.011C553.963 506.075 591.554 631.067 682.727 677.245C741.75 707.106 810.666 697.316 876.12 692.258C941.738 687.199 1013.29 689.81 1061.76 737.946C1148.65 824.266 1117.65 1011.26 1211.8 1087.3C1273.95 1137.4 1360.34 1114.55 1437.5 1120.43C1535.11 1127.93 1626.77 1187.82 1680.36 1279.2C1733.94 1370.57 1748.28 1491.65 1718.61 1600" stroke="#1C2226" stroke-miterlimit="10"/>
<path d="M8.9043 510.97C79.9633 455.654 156.298 406.212 239.393 385C289.513 372.109 342.766 370.64 391.733 383.694C423.717 392.179 453.889 407.028 480.268 428.73C560.23 494.816 599.304 617.034 688.334 664.844C719.989 681.814 754.117 687.852 789.564 688.994C819.57 689.973 850.401 687.525 880.737 685.73C923.274 683.119 968.613 682.956 1008.51 695.358C1030.6 702.211 1051.05 712.817 1068.52 728.808C1102.98 760.138 1120.62 805.663 1134.8 854.289C1155.41 924.291 1169.26 1000.98 1214.43 1050.75C1219.22 1056.14 1224.49 1061.03 1230.1 1065.76C1291.76 1117 1374.52 1099.05 1447.23 1108.19C1518.45 1117.33 1585.39 1156.82 1636.17 1217.68C1650.85 1235.3 1664.03 1254.72 1675.74 1275.61C1696.68 1313.3 1712.01 1355.56 1721.41 1399.46C1735.59 1464.73 1736.74 1533.42 1723.06 1596.57" stroke="#23292E" stroke-miterlimit="10"/>
<path d="M17.6406 496.932C88.5348 442.595 164.705 394.459 247.47 374.062C297.425 361.661 350.184 360.518 398.82 373.572C430.64 382.058 460.647 396.58 487.026 418.119C566.823 483.063 607.051 602.669 694.103 651.948C725.428 669.571 758.732 677.24 793.849 679.688C823.69 681.809 854.686 680.177 885.187 678.709C928.053 676.751 973.722 676.588 1014.12 688.01C1036.37 694.374 1056.98 704.164 1075.12 719.339C1110.4 748.711 1129.85 791.462 1145.85 837.641C1169.09 904.053 1186.57 978.134 1232.4 1028.55C1237.35 1033.94 1242.46 1039 1248.07 1043.73C1309.4 1095.95 1388.21 1082.89 1456.46 1095.62C1523.23 1108.02 1585.06 1149.63 1632.71 1212.13C1646.56 1230.24 1659.25 1250.15 1670.46 1271.52C1690.74 1310.03 1706.24 1352.95 1716.63 1397.17C1732.12 1462.93 1736.58 1531.13 1727.01 1592.65" stroke="#2A2F37" stroke-miterlimit="10"/>
<path d="M26.3789 483.066C96.9433 429.544 173.113 382.713 255.548 363.296C305.174 351.547 357.438 350.568 405.745 363.622C437.235 372.107 467.077 386.466 493.456 407.679C573.253 471.643 614.8 588.64 699.873 639.224C730.704 657.662 763.348 666.8 798.301 670.39C827.977 673.654 858.973 672.675 889.803 671.859C932.999 670.553 979.163 670.39 1019.89 680.833C1042.47 686.708 1063.41 695.845 1081.88 709.878C1118.15 737.292 1139.09 777.106 1157.06 821C1183.11 883.985 1204.21 955.13 1250.54 1006.37C1255.49 1011.75 1260.6 1016.97 1266.2 1021.87C1327.2 1075.23 1402.22 1067.07 1465.86 1083.06C1528.35 1098.72 1584.73 1142.45 1629.58 1206.74C1642.6 1225.35 1654.64 1245.91 1665.52 1267.61C1685.14 1307.1 1700.8 1350.5 1712.01 1395.05C1728.99 1461.3 1736.58 1529.01 1731.14 1588.74" stroke="#31363F" stroke-miterlimit="10"/>
<path d="M35.1172 469.197C105.517 416.655 181.522 371.13 263.462 352.528C312.758 341.269 364.692 340.616 412.67 353.67C443.995 362.155 473.672 376.351 499.886 397.074C579.683 460.06 622.384 574.445 705.479 626.498C735.98 645.589 767.8 656.195 802.423 661.254C831.934 665.496 863.095 665.496 894.255 665.17C937.781 664.517 984.274 664.191 1025.66 673.818C1048.41 679.04 1069.68 687.688 1088.64 700.579C1125.9 726.034 1148.32 763.238 1168.27 804.358C1196.96 863.753 1221.69 932.287 1268.84 984.176C1273.79 989.724 1279.06 994.946 1284.5 999.841C1345.01 1054.18 1416.4 1050.91 1475.59 1070.33C1533.62 1089.26 1584.73 1135.11 1626.61 1201.2C1638.81 1220.45 1650.18 1241.34 1660.74 1263.53C1679.7 1303.83 1695.52 1348.06 1707.72 1392.76C1726.19 1459.5 1736.74 1526.73 1735.59 1584.82" stroke="#383C47" stroke-miterlimit="10"/>
<path d="M43.8545 455.167C114.089 403.441 189.929 359.221 271.54 341.598C320.506 330.828 371.946 330.665 419.758 343.556C450.919 352.041 480.43 366.074 506.48 386.471C586.112 448.477 630.297 560.252 711.249 613.61C741.42 633.517 772.415 645.592 806.873 651.792C836.22 657.177 867.545 657.993 898.871 657.993C942.561 657.993 989.714 657.667 1031.43 666.315C1054.51 671.047 1075.94 678.879 1095.23 690.791C1133.48 714.288 1157.55 748.718 1179.31 787.391C1210.64 843.359 1239.16 909.119 1286.81 961.661C1291.92 967.209 1297.03 972.594 1302.47 977.652C1362.65 1032.97 1430.25 1034.76 1484.82 1057.44C1538.57 1079.8 1584.24 1127.61 1623.31 1195.33C1634.69 1215.07 1645.4 1236.61 1655.62 1259.13C1673.92 1300.25 1689.92 1345.12 1702.94 1389.99C1722.73 1457.06 1736.58 1523.96 1739.54 1580.42" stroke="#3F4350" stroke-miterlimit="10"/>
<path d="M52.5947 441.302C122.5 390.392 198.34 347.64 279.621 330.833C328.258 320.553 379.367 320.716 426.685 333.607C457.516 342.092 486.863 355.962 512.912 376.032C592.544 437.06 637.884 546.223 716.856 600.887C746.698 621.61 776.869 635.154 811.162 642.496C840.344 648.86 871.669 650.655 903.324 651.145C947.345 651.797 994.827 651.471 1037.03 659.303C1060.28 663.546 1082.04 670.726 1101.83 681.495C1140.9 703.034 1166.79 734.69 1190.36 770.915C1224.49 823.294 1256.48 886.442 1304.78 939.637C1309.89 945.185 1315.17 950.57 1320.61 955.791C1380.46 1012.25 1444.26 1018.94 1494.38 1045.05C1543.68 1070.67 1584.24 1120.76 1620.18 1190.11C1630.73 1210.34 1640.95 1232.37 1650.68 1255.38C1668.32 1297.48 1684.48 1342.84 1698.49 1388.04C1719.76 1455.59 1736.74 1522.01 1743.83 1576.83" stroke="#464958" stroke-miterlimit="10"/>
<path d="M61.4971 427.266C131.237 377.334 206.913 335.888 287.699 319.897C336.006 310.27 386.621 310.596 433.774 323.487C464.44 331.972 493.622 345.679 519.506 365.26C598.974 425.145 645.632 532.024 722.461 587.993C751.973 609.532 781.32 624.381 815.283 633.192C844.3 640.698 875.79 643.146 907.61 644.125C951.96 645.43 999.938 644.941 1042.47 651.957C1066.05 655.71 1088.14 662.074 1108.26 672.028C1148.32 691.608 1175.69 720.327 1201.24 754.268C1238.01 803.22 1273.62 863.594 1322.75 917.442C1327.86 923.153 1333.14 928.538 1338.58 933.759C1398.1 991.197 1458.11 1002.95 1503.62 1032.32C1548.63 1061.36 1583.74 1113.41 1616.88 1184.56C1626.61 1205.45 1636.17 1227.8 1645.57 1251.46C1662.55 1294.38 1678.71 1340.55 1693.71 1385.92C1716.3 1453.96 1736.58 1520.05 1747.79 1573.08" stroke="#4D5060" stroke-miterlimit="10"/>
<path d="M70.2334 413.393C139.809 364.277 215.319 324.136 295.776 309.124C343.918 299.986 394.038 300.639 440.696 313.53C471.197 321.852 500.05 335.559 526.099 354.813C605.567 413.719 653.379 518.151 728.23 575.262C757.412 597.454 786.099 613.934 819.733 623.888C848.585 632.373 880.24 635.8 912.39 637.268C957.07 639.226 1005.38 638.737 1048.57 644.774C1072.31 648.038 1094.74 653.749 1115.34 662.56C1156.4 680.183 1185.41 706.128 1212.78 737.62C1252.35 782.983 1291.59 840.747 1341.22 895.247C1346.33 900.958 1351.6 906.506 1357.04 911.891C1416.07 970.47 1472.62 987.277 1513.34 1019.75C1554.23 1052.22 1583.74 1106.23 1614.08 1179.01C1622.98 1200.38 1631.88 1223.39 1640.95 1247.38C1657.27 1291.11 1673.59 1337.94 1689.59 1383.63C1713.66 1452.16 1737.07 1517.76 1752.4 1569.16" stroke="#545669" stroke-miterlimit="10"/>
<path d="M78.9736 399.521C148.219 351.385 223.894 312.549 303.856 298.353C351.669 289.705 401.459 290.684 447.788 303.575C477.959 311.897 506.811 325.277 532.696 344.369C612.163 402.295 661.13 504.116 734.002 562.696C762.855 585.704 790.718 603.653 824.186 614.912C852.874 624.539 884.529 628.782 917.008 630.74C962.018 633.351 1010.65 632.861 1054.34 637.919C1078.42 640.693 1101.17 645.589 1121.94 653.421C1163.98 669.086 1194.65 692.257 1223.83 721.302C1266.04 763.237 1308.9 818.227 1359.19 873.38C1364.47 879.091 1369.74 884.802 1375.02 890.187C1433.71 949.746 1486.47 971.774 1522.74 1007.35C1559.34 1043.41 1583.41 1099.38 1610.78 1173.78C1618.86 1195.65 1627.27 1219.15 1635.84 1243.62C1651.5 1288.17 1667.99 1335.65 1684.81 1381.67C1710.36 1450.69 1736.91 1515.8 1756.36 1565.57" stroke="#5B5D71" stroke-miterlimit="10"/>
<path d="M87.7119 385.492C156.792 338.171 232.303 300.641 311.77 287.424C359.253 279.428 408.549 280.733 454.713 293.461C484.719 301.783 513.406 315 539.126 333.602C618.429 390.55 668.549 489.923 739.608 549.645C767.966 573.469 795.169 592.886 828.308 605.288C856.831 616.057 888.651 620.952 921.295 623.4C966.634 626.663 1015.77 626.174 1059.79 630.253C1084.02 632.538 1107.1 636.617 1128.37 643.47C1171.4 657.177 1203.55 677.574 1234.71 704.171C1279.72 742.517 1326.22 794.896 1377.16 850.539C1382.44 856.413 1387.71 862.124 1393.15 867.672C1451.52 928.373 1500.65 955.46 1532.14 994.296C1564.45 1033.78 1583.08 1091.71 1607.65 1167.91C1614.9 1190.43 1622.65 1214.42 1630.9 1239.22C1645.9 1284.75 1662.55 1332.88 1680.36 1379.06C1707.23 1448.57 1737.07 1513.19 1760.65 1561.33" stroke="#626379" stroke-miterlimit="10"/>
<path d="M96.4482 371.621C165.364 325.279 240.71 289.054 319.847 276.653C367 269.147 415.966 270.779 461.635 283.506C491.477 291.828 519.835 304.882 545.554 323.158C624.857 379.127 676.131 476.215 745.212 536.916C773.24 561.556 799.619 582.442 832.593 596.149C860.951 607.897 892.936 613.772 925.745 616.709C971.249 620.625 1020.87 619.972 1065.39 623.236C1089.96 625.031 1113.2 628.457 1134.96 634.168C1178.99 645.917 1212.78 663.54 1245.76 687.69C1293.57 722.609 1343.53 772.051 1395.13 828.509C1400.41 834.384 1405.85 840.095 1411.12 845.806C1469.16 907.486 1514.5 939.957 1541.53 981.73C1569.4 1024.97 1582.75 1084.69 1604.35 1162.36C1610.78 1185.37 1617.87 1209.85 1625.78 1235.14C1640.13 1281.48 1656.94 1330.27 1675.57 1376.78C1703.93 1446.78 1736.91 1510.91 1764.6 1557.41" stroke="#696A82" stroke-miterlimit="10"/>
<path d="M105.187 357.587C173.772 312.061 249.118 277.142 327.926 265.72C374.749 258.703 423.221 260.661 468.725 273.389C498.402 281.711 526.594 294.602 552.149 312.551C631.287 367.378 683.88 462.182 750.983 524.188C778.681 549.644 804.236 571.998 837.045 586.847C865.238 599.738 897.222 606.428 930.526 609.692C976.36 614.261 1026.48 613.608 1071.49 615.892C1096.39 617.198 1119.96 619.809 1142.05 624.541C1187.23 634.331 1222.51 649.18 1257.3 670.882C1307.91 702.212 1361.5 749.043 1413.6 806.154C1419.04 812.028 1424.31 817.902 1429.59 823.777C1487.13 886.436 1528.67 924.292 1551.26 969.002C1574.84 1015.83 1582.75 1077.35 1601.55 1156.82C1607.15 1180.48 1613.75 1205.44 1621.17 1231.06C1634.85 1278.22 1651.83 1327.66 1671.45 1374.49C1701.29 1444.98 1737.4 1508.62 1769.22 1553.49" stroke="#70708A" stroke-miterlimit="10"/>
<path d="M114.091 343.715C182.512 299.168 257.693 265.554 336.006 254.948C382.499 248.584 430.641 250.705 475.651 263.433C504.998 271.755 533.026 284.482 558.581 301.942C637.718 355.789 691.301 448.146 756.59 511.295C783.958 537.729 808.688 561.226 841.168 577.544C869.196 591.577 901.345 599.083 934.814 602.836C980.978 608.057 1031.43 607.405 1076.93 608.71C1101.99 609.526 1125.9 611.484 1148.32 615.237C1194.48 622.906 1231.42 635.144 1268.02 654.399C1321.27 682.302 1378.48 726.359 1431.4 784.123C1436.84 790.16 1442.12 796.034 1447.4 801.909C1504.61 865.71 1542.36 908.788 1560.33 956.435C1579.46 1007.02 1582.09 1070.33 1598.09 1151.43C1602.87 1175.58 1608.8 1201.03 1615.89 1227.14C1628.92 1275.28 1646.06 1325.37 1666.51 1372.2C1697.67 1443.18 1737.07 1506.33 1773.01 1549.41" stroke="#777792" stroke-miterlimit="10"/>
<path d="M122.828 329.854C191.084 286.123 266.1 253.978 344.084 244.187C390.412 238.313 438.06 240.924 482.739 253.488C511.921 261.81 539.785 274.374 565.339 291.508C644.312 344.376 699.049 434.449 762.524 498.576C789.398 525.826 813.469 550.792 845.783 568.252C873.646 583.264 905.961 591.586 939.594 595.991C986.088 601.866 1037.03 601.05 1082.87 601.539C1108.26 601.866 1132.49 603.008 1155.24 605.782C1202.4 611.493 1240.98 620.957 1279.39 637.601C1335.45 661.914 1396.12 703.36 1449.7 761.777C1455.14 767.814 1460.58 773.852 1465.69 779.889C1522.58 844.669 1556.37 893.132 1570.06 943.879C1584.73 998.053 1582.09 1063.16 1595.12 1145.89C1599.07 1170.53 1604.35 1196.64 1611.11 1223.07C1623.48 1272.02 1640.79 1322.77 1662.22 1369.93C1694.86 1441.4 1737.4 1504.06 1777.46 1545.5" stroke="#7E7E9B" stroke-miterlimit="10"/>
<path d="M131.565 315.815C199.492 273.064 274.508 242.06 352.162 233.249C398.16 227.864 445.313 230.801 489.828 243.529C518.845 251.851 546.543 264.252 571.933 281.059C650.906 332.949 706.797 420.737 768.294 486.006C794.838 514.072 818.249 540.507 850.234 559.109C877.932 575.263 910.247 584.401 944.21 589.133C991.033 595.66 1042.31 594.844 1088.64 594.354C1114.19 594.028 1138.76 594.517 1162 596.312C1210.15 600.065 1250.21 606.755 1290.6 620.952C1349.46 641.675 1413.76 680.51 1467.84 739.58C1473.44 745.617 1478.72 751.818 1483.99 757.855C1540.38 823.778 1570.39 877.462 1579.62 931.146C1589.68 989.073 1581.93 1055.97 1592.15 1140.34C1595.28 1165.63 1599.9 1192.06 1606.33 1219.15C1618.03 1269.08 1635.51 1320.32 1657.77 1367.8C1691.9 1439.76 1737.56 1501.93 1781.91 1541.75" stroke="#8584A3" stroke-miterlimit="10"/>
<path d="M140.305 301.947C208.066 260.011 282.917 230.477 360.241 222.481C405.91 217.586 452.734 220.85 496.754 233.577C525.441 241.899 552.975 254.137 578.365 270.455C657.172 321.365 714.218 406.869 773.9 473.117C799.95 501.999 822.702 529.902 854.357 549.809C881.89 567.106 914.37 577.06 948.498 582.281C995.651 589.461 1047.42 588.645 1094.24 587.34C1120.13 586.524 1144.86 586.197 1168.6 587.013C1217.73 588.645 1259.44 592.724 1301.65 604.473C1363.31 621.769 1431.07 657.831 1485.97 717.553C1491.58 723.59 1497.02 729.791 1502.13 735.992C1558.19 802.893 1584.07 861.799 1589.18 918.584C1594.62 980.101 1581.6 1048.8 1589.02 1134.95C1591.33 1160.73 1595.28 1187.82 1601.38 1215.24C1612.43 1265.98 1629.91 1318.03 1653.15 1365.68C1688.6 1438.13 1737.57 1499.81 1786.04 1537.99" stroke="#8C8BAC" stroke-miterlimit="10"/>
<path d="M149.043 288.081C216.64 247.124 291.326 218.732 368.155 211.715C413.495 207.473 459.823 210.9 503.679 223.627C532.201 231.786 559.569 243.861 584.795 260.015C663.602 309.783 721.637 393.165 779.506 460.557C805.226 490.417 827.154 519.626 858.644 540.675C886.012 559.114 918.657 569.72 953.114 575.595C1000.43 583.427 1052.7 582.611 1100.01 580.327C1126.06 579.021 1151.29 578.532 1175.19 577.716C1225.31 576.247 1268.68 578.695 1312.7 587.996C1377 601.702 1448.55 635.153 1503.95 695.528C1509.55 701.728 1514.99 707.929 1520.1 714.293C1575.83 782.337 1597.76 846.464 1598.42 906.186C1599.24 971.293 1581.1 1041.95 1585.72 1129.57C1587.04 1155.84 1590.5 1183.42 1596.27 1211.32C1606.66 1262.89 1624.3 1315.59 1648.54 1363.56C1685.47 1436.5 1737.57 1497.69 1790.16 1534.24" stroke="#9391B4" stroke-miterlimit="10"/>
<path d="M157.781 274.039C225.048 233.898 299.734 206.974 376.234 200.774C421.244 197.021 467.242 200.937 510.603 213.501C538.961 221.66 566.164 233.572 591.225 249.236C670.033 298.026 728.891 379.123 785.112 447.493C810.337 478.17 831.605 508.847 862.931 531.202C890.134 550.62 922.778 562.205 957.566 568.406C1005.21 576.891 1057.97 575.912 1105.62 572.811C1132 571.017 1157.39 569.222 1181.79 568.079C1232.9 565.632 1277.91 564.163 1323.74 571.18C1390.84 581.297 1465.86 612.137 1521.92 673.164C1527.69 679.364 1532.96 685.728 1538.07 692.092C1593.47 761.115 1611.28 830.464 1607.65 893.449C1603.86 962.146 1580.61 1034.6 1582.42 1124.01C1582.92 1150.94 1585.89 1179 1591.16 1207.23C1600.89 1259.78 1618.7 1312.97 1643.76 1361.27C1682.17 1434.54 1737.24 1495.4 1794.12 1530.32" stroke="#9A98BC" stroke-miterlimit="10"/>
<path d="M166.682 260.174C233.784 221.012 308.305 195.231 384.475 190.009C429.155 186.746 474.824 190.988 517.855 203.553C545.883 211.711 572.922 223.46 597.982 238.798C676.625 286.608 736.637 365.422 791.045 434.771C815.775 466.427 836.384 498.409 867.379 521.906C894.418 542.466 927.227 554.867 962.18 561.557C1010.16 570.695 1063.25 569.716 1111.39 565.637C1137.93 563.352 1163.82 560.742 1188.55 558.62C1240.65 554.051 1287.3 549.972 1334.95 554.541C1404.86 561.231 1483.33 589.134 1540.21 650.977C1545.98 657.178 1551.43 663.705 1556.54 670.232C1611.44 740.234 1625.29 814.804 1617.54 880.89C1608.97 953.176 1580.61 1027.58 1579.62 1118.64C1579.29 1146.05 1581.6 1174.6 1586.54 1203.32C1595.61 1256.68 1613.58 1310.69 1639.63 1359.15C1679.36 1432.91 1737.73 1493.28 1798.73 1526.57" stroke="#A19EC5" stroke-miterlimit="10"/>
<path d="M175.422 246.134C242.359 207.788 316.716 183.475 392.391 179.069C436.906 176.458 481.915 180.864 524.782 193.428C552.645 201.587 579.518 213.173 604.579 228.185C683.222 275.016 744.059 351.545 796.817 422.036C821.053 454.508 841.002 487.958 871.833 512.761C898.707 534.463 931.681 547.68 966.798 554.697C1015.11 564.324 1068.69 563.508 1117.16 558.45C1144.03 555.676 1170.08 552.249 1195.31 549.149C1248.4 542.622 1296.54 535.769 1346.16 537.89C1418.71 540.99 1500.98 566.282 1558.35 628.778C1564.12 635.142 1569.56 641.669 1574.67 648.196C1629.25 719.34 1638.97 798.969 1626.94 868.155C1613.75 943.868 1580.28 1020.23 1576.49 1112.92C1575.33 1140.98 1576.98 1169.86 1581.6 1199.07C1590.01 1253.25 1608.14 1307.91 1635.02 1356.7C1676.23 1430.94 1737.73 1490.83 1802.85 1522.48" stroke="#A8A5CD" stroke-miterlimit="10"/>
<path d="M184.16 232.262C250.768 194.732 325.124 171.887 400.47 168.297C444.655 166.176 489.335 170.908 531.706 183.473C559.404 191.631 585.949 203.054 611.009 217.576C689.487 263.265 751.478 337.673 802.423 409.143C826.164 442.594 845.454 477.35 876.12 503.295C902.829 526.139 935.803 540.009 971.415 547.678C1020.05 557.958 1073.96 556.979 1123.1 551.105C1150.3 547.841 1176.51 543.599 1202.07 539.519C1256.15 530.871 1305.94 521.244 1357.38 521.081C1432.72 520.428 1518.45 543.272 1576.49 606.421C1582.42 612.785 1587.7 619.312 1592.81 626.165C1647.05 698.288 1652.66 783.139 1636.5 855.425C1618.69 934.728 1580.12 1013.05 1573.36 1107.37C1571.38 1135.92 1572.37 1165.46 1576.65 1194.99C1584.4 1250.14 1602.7 1305.3 1630.57 1354.41C1673.27 1429.15 1737.9 1488.54 1807.14 1518.57" stroke="#AFABD5" stroke-miterlimit="10"/>
<path d="M192.897 218.401C259.34 181.85 333.532 160.148 408.548 157.537C452.403 155.905 496.588 161.127 538.795 173.528C566.163 181.687 592.707 192.946 617.603 207.142C696.081 251.852 758.896 323.975 808.193 396.424C831.604 430.691 850.07 466.916 880.406 494.166C906.95 518.153 940.089 532.838 975.865 540.997C1024.83 551.93 1079.24 550.951 1128.7 544.097C1156.07 540.344 1182.78 535.286 1208.66 530.228C1263.73 519.458 1315.17 507.22 1368.42 504.609C1446.57 500.367 1535.93 520.6 1594.62 584.401C1600.56 590.765 1606 597.455 1610.95 604.309C1664.86 677.574 1666.51 767.483 1645.9 843.033C1623.31 925.762 1579.62 1006.04 1570.22 1102.15C1567.42 1131.2 1567.91 1161.22 1571.71 1191.25C1578.8 1247.22 1597.26 1303.19 1625.95 1352.3C1669.97 1427.52 1737.89 1486.43 1811.26 1514.82" stroke="#B6B2DE" stroke-miterlimit="10"/>
<path d="M201.635 204.363C267.748 168.628 341.939 148.394 416.46 146.599C459.986 145.457 503.842 151.005 545.554 163.406C572.757 171.565 599.137 182.661 623.867 196.531C702.18 240.261 765.985 310.1 813.632 383.692C836.385 418.938 854.355 456.468 884.527 484.86C910.906 509.826 944.045 525.491 980.151 533.976C1029.28 545.561 1084.18 544.582 1134.14 536.75C1161.84 532.507 1188.71 526.633 1215.09 520.758C1271.15 507.868 1324.07 493.019 1379.3 487.96C1460.09 480.291 1553.07 497.751 1612.43 562.205C1618.36 568.732 1623.8 575.422 1628.92 582.438C1682.33 656.683 1680.02 751.814 1655.13 830.464C1627.93 916.783 1578.96 998.86 1566.92 1096.6C1563.13 1126.3 1563.13 1156.81 1566.59 1187.33C1573.02 1244.11 1591.65 1300.73 1621.33 1350.17C1666.84 1425.89 1737.89 1484.3 1815.38 1510.9" stroke="#BDB8E6" stroke-miterlimit="10"/>
<path d="M210.374 190.497C276.322 155.741 350.349 136.65 424.54 135.834C467.736 135.344 511.262 141.055 552.644 153.456C579.683 161.615 605.733 172.385 630.463 185.928C708.776 228.68 773.405 296.397 819.404 370.805C841.662 406.867 858.973 445.865 888.814 475.4C915.029 501.508 948.333 517.825 984.604 526.963C1034.06 539.201 1089.46 538.059 1139.75 529.411C1167.61 524.678 1194.81 518.152 1221.69 511.135C1278.73 496.286 1333.3 478.663 1390.35 470.994C1473.94 459.735 1570.39 474.584 1630.4 539.691C1636.34 546.218 1641.94 553.071 1646.89 560.087C1699.98 635.474 1693.55 735.5 1664.53 817.414C1632.71 907.16 1578.63 991.358 1563.63 1090.73C1559.01 1120.92 1558.35 1151.92 1561.48 1182.92C1567.25 1240.69 1586.05 1297.8 1616.55 1347.57C1663.54 1423.77 1737.73 1481.7 1819.34 1506.66" stroke="#C4BFEE" stroke-miterlimit="10"/>
<path d="M219.276 176.462C285.06 142.521 358.921 124.898 432.783 124.898C475.649 124.898 518.68 130.936 559.898 143.337C586.772 151.333 612.656 162.102 637.222 175.319C715.37 217.092 780.824 282.525 825.339 358.075C847.102 395.115 863.754 435.256 893.43 466.26C919.48 493.51 952.948 510.643 989.549 520.27C1039.34 533.161 1095.07 532.019 1146.01 522.555C1174.2 517.333 1201.57 509.99 1228.78 501.995C1286.65 484.861 1343.03 464.791 1401.89 454.674C1488.28 439.988 1588.36 452.063 1649.03 517.823C1655.13 524.35 1660.57 531.366 1665.52 538.383C1718.28 614.748 1707.72 719.996 1674.42 805.01C1637.82 898.019 1578.63 984.339 1560.99 1085.51C1555.55 1116.18 1554.39 1147.84 1557.03 1179.17C1562.14 1237.75 1581.1 1295.51 1612.59 1345.61C1660.9 1422.3 1738.39 1479.74 1824.12 1503.07" stroke="#CBC5F7" stroke-miterlimit="10"/>
<path d="M228.015 162.59C331.553 110.538 455.7 99.7682 566.823 133.382C677.945 166.996 774.559 244.83 830.78 345.346C852.048 383.366 868.04 424.812 897.552 456.957C958.554 523.696 1062.26 533.323 1151.45 515.211C1240.48 497.098 1323.58 456.141 1412.77 437.866C1501.8 419.59 1605.5 429.054 1666.84 495.466C1738.22 572.974 1724.71 695.845 1683.65 792.281C1642.44 888.88 1578.14 976.994 1557.53 1079.79C1539.56 1169.54 1557.86 1265.98 1607.65 1343.16C1657.44 1420.34 1738.06 1477.29 1827.91 1498.99" stroke="#D2CCFF" stroke-miterlimit="10"/>
<path d="M255.549 156.392C358.428 105.808 481.091 96.3437 590.565 130.61C700.039 164.877 795.498 242.059 850.07 342.085C871.339 381.083 886.177 424.324 914.699 457.612C972.569 525.166 1072.81 536.589 1159.2 521.74C1245.43 506.891 1326.87 469.85 1415.08 453.859C1504.44 437.542 1608.64 445.211 1671.62 509.828C1744.49 585.051 1735.09 707.106 1695.52 804.358C1655.96 901.61 1590.01 990.214 1567.09 1090.4C1547.31 1177.05 1563.96 1269.73 1610.12 1344.47C1656.29 1419.2 1732.29 1475.49 1818.85 1498.01" stroke="#CDC9FE" stroke-miterlimit="10"/>
<path d="M283.246 150.358C385.301 101.405 506.645 93.0833 614.635 127.839C722.625 162.596 816.766 239.451 869.524 338.987C890.792 379.128 904.312 423.838 931.845 458.268C986.417 526.475 1083.36 539.855 1166.78 528.27C1250.37 516.848 1330.17 483.56 1417.39 469.69C1507.08 455.494 1611.93 461.042 1676.56 524.027C1751.08 596.803 1745.48 718.368 1707.72 816.11C1669.97 913.851 1602.37 1003.11 1576.98 1100.52C1555.22 1183.9 1570.39 1273.16 1612.92 1345.45C1655.62 1417.73 1726.85 1473.38 1810.11 1496.71" stroke="#C7C6FE" stroke-miterlimit="10"/>
<path d="M310.78 144.16C412.175 96.8398 532.036 89.8233 638.542 124.906C745.048 159.988 837.705 236.68 888.815 335.727C910.083 377.01 922.283 423.189 948.992 458.924C1000.43 527.784 1093.75 542.959 1174.53 534.8C1255.32 526.641 1333.47 497.107 1419.86 485.521C1509.72 473.447 1615.4 476.873 1681.51 538.227C1757.68 608.718 1755.87 729.631 1719.92 827.862C1683.98 926.093 1614.57 1015.84 1586.71 1110.81C1563.3 1190.76 1576.49 1276.59 1615.56 1346.59C1654.64 1416.43 1721.24 1471.26 1801.21 1495.57" stroke="#C2C3FD" stroke-miterlimit="10"/>
<path d="M338.479 137.952C439.049 92.1 557.756 86.3889 662.613 122.124C767.47 157.859 858.809 234.225 908.27 332.619C929.538 375.045 940.419 422.528 966.304 459.732C1014.61 529.081 1104.46 546.378 1182.45 541.646C1260.43 536.914 1336.93 511.132 1422.5 501.668C1512.85 491.551 1618.86 493.183 1686.79 552.742C1764.6 620.949 1766.58 741.045 1732.46 839.929C1698.16 938.813 1627.27 1028.72 1596.93 1121.24C1571.71 1197.93 1583.25 1280.34 1618.69 1347.89C1654.14 1415.45 1716.13 1469.46 1792.8 1494.75" stroke="#BDC0FD" stroke-miterlimit="10"/>
<path d="M366.013 131.916C465.924 87.6957 583.147 83.1269 686.355 119.352C789.564 155.576 879.583 231.616 927.395 329.357C948.664 372.925 958.391 421.877 983.286 460.223C1028.46 530.062 1114.85 549.48 1190.03 548.011C1265.21 546.542 1340.23 524.84 1424.81 517.334C1515.49 509.339 1621.99 509.012 1691.57 566.776C1770.87 632.699 1776.97 752.142 1744.33 851.516C1711.85 950.889 1639.3 1041.29 1606.33 1131.36C1579.46 1204.79 1589.18 1283.6 1621 1348.71C1652.82 1413.81 1710.2 1467.17 1783.4 1493.28" stroke="#B8BDFC" stroke-miterlimit="10"/>
<path d="M393.71 125.715C492.797 83.1264 608.701 79.6997 710.425 116.577C812.15 153.455 900.521 229.168 946.849 326.256C968.117 370.966 976.526 421.224 1000.43 461.039C1042.64 531.204 1125.24 552.743 1197.78 554.701C1270.16 556.659 1343.53 538.71 1427.28 533.325C1518.29 527.614 1625.29 525.003 1696.68 581.135C1777.63 644.773 1787.52 763.564 1756.69 863.59C1725.86 963.616 1652 1054.18 1616.39 1141.8C1588.03 1211.8 1595.61 1287.35 1623.97 1350.01C1652.33 1412.67 1704.92 1465.21 1774.83 1492.3" stroke="#B2BAFC" stroke-miterlimit="10"/>
<path d="M421.243 119.509C519.671 78.5525 634.09 76.2681 734.331 113.635C834.572 151.002 921.294 226.552 966.139 322.988C987.407 368.84 994.661 420.403 1017.58 461.523C1056.82 531.851 1135.79 555.838 1205.37 561.059C1275.11 566.281 1346.82 552.411 1429.59 549.148C1520.93 545.558 1628.59 540.989 1701.46 595.326C1783.89 656.68 1797.74 774.655 1768.73 875.334C1739.71 976.012 1664.36 1066.57 1626.11 1152.08C1596.27 1218.65 1601.88 1290.78 1626.61 1351.15C1651.34 1411.36 1699.15 1463.25 1765.92 1491.15" stroke="#ADB6FB" stroke-miterlimit="10"/>
<path d="M448.939 113.482C546.543 73.9933 659.643 73.0143 758.236 110.871C856.828 148.727 942.066 224.114 985.427 319.897C1006.69 366.892 1012.63 419.597 1034.72 462.349C1071.16 532.84 1146.34 559.274 1213.11 567.759C1280.05 576.408 1350.28 561.885 1432.06 565.149C1523.73 568.738 1631.88 557.153 1706.57 609.695C1790.49 668.764 1808.29 786.087 1780.92 887.255C1753.56 988.423 1677.06 1079.31 1635.84 1162.37C1604.51 1225.68 1608.14 1294.38 1629.24 1352.14C1650.35 1410.07 1693.54 1460.98 1757.02 1489.86" stroke="#A8B3FB" stroke-miterlimit="10"/>
<path d="M476.474 107.281C573.417 69.4247 685.199 69.5878 782.143 108.097C879.251 146.443 962.84 221.666 1004.72 316.634C1025.99 364.771 1030.77 418.781 1051.87 462.838C1085.5 533.493 1156.73 562.212 1220.86 574.287C1285 586.198 1353.91 575.429 1434.53 580.977C1526.53 587.177 1635.18 573.144 1711.52 623.892C1797.08 680.676 1818.68 797.346 1793.13 899.004C1767.57 1000.66 1689.75 1091.71 1645.73 1172.48C1613.09 1232.37 1614.41 1297.64 1632.05 1353.12C1649.69 1408.6 1688.1 1458.86 1748.28 1488.55" stroke="#A3B0FA" stroke-miterlimit="10"/>
<path d="M504.172 101.076C600.456 64.8516 710.754 66.157 806.214 105.156C901.674 144.154 983.614 219.052 1024.17 313.366C1045.28 362.645 1049.07 417.798 1069.02 463.487C1099.85 534.142 1167.28 565.471 1228.61 580.809C1289.94 596.148 1357.21 594.19 1437.01 596.801C1529.66 599.901 1638.48 588.968 1716.63 638.084C1803.68 692.584 1829.4 808.601 1805.49 910.748C1781.59 1012.9 1702.78 1104.11 1655.62 1182.76C1621.83 1239.22 1620.84 1301.23 1634.85 1354.26C1648.86 1407.29 1682.66 1456.89 1739.54 1487.41" stroke="#9DADFA" stroke-miterlimit="10"/>
<path d="M531.706 95.0407C627.166 60.4477 736.145 63.0585 830.121 102.384C924.097 141.709 1004.39 216.606 1043.46 310.268C1064.57 360.689 1067.37 416.984 1086.16 464.305C1114.36 535.122 1177.67 568.899 1236.36 587.501C1294.89 606.103 1360.51 608.225 1439.32 612.793C1532.3 618.178 1641.61 605.124 1721.41 652.282C1809.94 704.661 1839.62 819.699 1817.53 922.499C1795.44 1025.3 1715.47 1116.51 1665.35 1192.88C1630.4 1246.07 1627.1 1304.49 1637.49 1355.07C1647.88 1405.66 1677.06 1454.45 1730.64 1485.94" stroke="#98AAF9" stroke-miterlimit="10"/>
<path d="M559.403 88.8363C654.204 55.7118 761.699 59.628 854.026 99.6058C946.353 139.584 1025 214.317 1062.75 307.164C1083.69 358.727 1085.5 416.164 1103.31 464.954C1129.03 535.608 1188.22 571.996 1243.94 594.025C1299.67 616.053 1363.8 622.254 1441.62 628.781C1535.1 636.613 1644.74 621.275 1726.19 666.637C1816.21 716.732 1849.84 831.117 1829.4 934.57C1808.95 1038.02 1728.33 1129.24 1674.75 1203.48C1638.97 1253.25 1632.87 1308.4 1639.8 1356.54C1646.72 1404.68 1671.12 1452.81 1721.41 1485.12" stroke="#93A7F9" stroke-miterlimit="10"/>
<path d="M586.938 82.8024C680.913 51.3097 787.09 56.3681 877.933 96.8354C968.777 137.303 1045.61 211.873 1081.88 304.067C1102.82 356.936 1103.64 415.352 1120.29 465.773C1143.54 536.427 1198.61 575.426 1251.53 600.718C1304.62 626.01 1367.1 636.453 1443.93 644.775C1537.74 654.892 1647.71 637.432 1731.14 681C1822.64 728.81 1860.23 842.543 1841.6 946.485C1822.97 1050.43 1741.52 1141.8 1684.64 1213.76C1647.88 1260.27 1639.3 1311.83 1642.6 1357.68C1645.9 1403.54 1665.68 1450.86 1712.67 1483.98" stroke="#8EA4F9" stroke-miterlimit="10"/>
<path d="M614.636 76.6034C707.952 46.7425 812.81 52.9431 902.004 93.8999C991.199 134.857 1066.38 209.427 1101.33 300.642C1122.11 354.653 1122.27 414.211 1137.44 466.101C1158.21 536.756 1208.99 578.365 1259.28 607.084C1309.56 635.802 1370.56 650.325 1446.41 660.442C1540.71 673.006 1651.01 653.262 1736.08 695.035C1829.07 740.724 1870.78 853.477 1853.8 958.072C1836.82 1062.67 1754.88 1154.21 1694.53 1223.88C1657.11 1267.12 1645.73 1315.26 1645.4 1358.5C1645.07 1401.91 1660.24 1448.41 1703.93 1482.68" stroke="#88A1F8" stroke-miterlimit="10"/>
<path d="M642.169 70.3998C734.661 42.0075 838.2 49.5135 925.91 91.123C1013.62 132.732 1086.82 206.977 1120.62 297.539C1141.23 352.692 1140.57 413.229 1154.59 466.914C1173.05 537.405 1219.54 581.626 1267.03 613.771C1314.51 645.916 1374.03 664.518 1448.88 676.43C1543.68 691.442 1654.31 669.577 1741.19 709.391C1835.66 752.796 1881.33 864.897 1866 969.981C1850.83 1075.07 1768.4 1166.93 1704.26 1234.16C1666.01 1274.3 1652 1318.68 1648.04 1359.64C1644.08 1400.6 1654.64 1446.45 1695.03 1481.53" stroke="#839EF8" stroke-miterlimit="10"/>
<path d="M669.867 64.3657C761.7 37.605 863.754 46.2533 949.817 88.3523C1035.88 130.451 1107.43 204.696 1139.91 294.442C1160.36 350.9 1159.04 412.417 1171.73 467.733C1187.89 538.224 1230.1 585.056 1274.78 620.464C1319.46 655.873 1377.49 678.881 1451.35 692.424C1546.48 710.047 1657.6 685.734 1746.14 723.754C1842.09 765.037 1891.72 876.322 1878.2 981.896C1864.68 1087.63 1781.92 1179.83 1714.15 1244.61C1675.41 1281.65 1658.26 1322.28 1650.84 1360.95C1643.42 1399.46 1649.2 1444.5 1686.13 1480.56" stroke="#7E9BF7" stroke-miterlimit="10"/>
<path d="M697.401 58.1552C788.41 33.0263 889.145 42.8168 973.724 85.4054C1058.3 127.994 1127.88 202.075 1159.2 291.168C1179.48 348.769 1177.5 411.428 1188.88 468.213C1202.73 538.704 1240.48 588.146 1282.36 626.818C1324.24 665.654 1380.62 692.741 1453.66 708.079C1549.12 728.15 1660.74 701.552 1751.09 737.777C1848.52 776.776 1902.11 887.245 1890.4 993.635C1878.7 1100.02 1795.6 1192.71 1723.88 1254.71C1684.48 1288.65 1664.53 1325.69 1653.48 1361.76C1642.44 1397.82 1643.59 1442.2 1677.22 1479.08" stroke="#7898F7" stroke-miterlimit="10"/>
<path d="M724.935 51.9642C815.283 28.467 914.535 39.3997 997.63 82.641C1080.72 125.882 1148.49 199.8 1178.49 287.914C1198.61 346.82 1196.13 410.295 1205.86 468.875C1217.57 539.203 1250.87 591.256 1289.94 633.355C1329.02 675.454 1383.92 706.947 1455.97 724.08C1551.92 746.761 1663.87 717.716 1755.87 752.146C1854.79 789.023 1912.49 898.677 1902.44 1005.56C1892.38 1112.44 1809.29 1205.93 1733.61 1265C1693.88 1296.01 1670.79 1329.13 1656.12 1362.91C1641.61 1396.69 1637.98 1440.25 1668.32 1477.95" stroke="#7395F6" stroke-miterlimit="10"/>
<path d="M752.633 45.9221C842.322 23.8936 940.09 36.2948 1021.7 79.8624C1103.15 123.43 1169.09 197.511 1197.95 284.81C1217.9 344.858 1214.93 409.475 1223.17 469.523C1232.73 539.851 1261.42 594.515 1297.86 640.04C1334.29 685.566 1387.55 721.301 1458.61 740.066C1554.89 765.358 1667.17 734.029 1761.14 766.501C1861.55 801.257 1923.21 910.094 1914.8 1017.46C1906.56 1124.83 1823.46 1219.31 1743.67 1275.44C1703.44 1303.67 1677.22 1332.88 1659.09 1364.21C1640.95 1395.54 1632.71 1438.29 1659.75 1476.96" stroke="#6E92F6" stroke-miterlimit="10"/>
<path d="M780.165 39.722C869.195 19.3252 965.644 32.8687 1045.61 76.9258C1125.57 121.146 1189.54 195.064 1217.24 281.547C1236.86 342.9 1233.72 408.496 1240.32 470.176C1247.9 540.505 1271.97 597.779 1305.61 646.568C1339.24 695.357 1390.84 735.498 1460.91 755.895C1557.53 783.961 1670.3 750.021 1765.92 780.697C1867.81 813.332 1933.43 921.354 1926.84 1029.21C1920.24 1137.07 1837.31 1232.85 1753.23 1285.56C1712.51 1311.01 1683.32 1336.14 1661.56 1365.03C1639.8 1393.91 1626.94 1436.01 1650.68 1475.49" stroke="#698EF5" stroke-miterlimit="10"/>
<path d="M807.862 33.527C896.068 14.762 991.198 29.4477 1069.51 74.1575C1147.82 118.867 1209.98 192.622 1236.52 278.452C1255.98 340.948 1252.35 407.686 1257.46 470.835C1263.07 541.163 1282.52 600.885 1313.35 653.101C1344.18 705.316 1394.14 749.863 1463.39 771.728C1560.33 802.405 1673.6 766.18 1771.03 794.899C1874.41 825.413 1943.98 932.455 1939.2 1040.97C1934.42 1149.48 1851.65 1246.73 1763.28 1295.84C1722.07 1318.69 1689.92 1339.74 1664.53 1366.17C1639.3 1392.61 1621.66 1434.05 1642.1 1474.36" stroke="#638BF5" stroke-miterlimit="10"/>
<path d="M835.396 27.4821C922.778 10.3488 1016.59 26.1767 1093.42 71.3761C1170.25 116.575 1230.26 190.33 1255.82 275.181C1274.94 338.982 1271.31 406.7 1274.45 471.48C1278.07 541.808 1292.91 604.141 1320.94 659.62C1348.97 715.1 1397.44 764.052 1465.69 787.549C1562.8 821 1676.73 782.164 1775.82 809.088C1880.67 837.48 1954.2 943.707 1951.07 1052.71C1947.94 1161.87 1865.34 1260.75 1772.68 1305.95C1730.97 1326.35 1695.69 1342.99 1666.84 1367.14C1637.98 1391.29 1615.56 1431.76 1632.87 1473.04" stroke="#5E88F4" stroke-miterlimit="10"/>
<path d="M863.095 21.2876C949.816 5.62285 1042.14 22.7562 1117.32 68.445C1192.51 114.134 1250.7 187.889 1275.11 271.924C1293.9 336.867 1290.11 405.727 1291.59 472.139C1293.24 542.63 1303.3 607.41 1328.52 666.153C1353.75 725.059 1400.57 778.417 1468 803.546C1565.44 839.771 1679.7 798.488 1780.6 823.453C1886.94 849.724 1964.59 955.135 1963.11 1064.79C1961.62 1174.44 1879.19 1275.45 1782.41 1316.57C1740.2 1334.52 1701.95 1346.92 1669.47 1368.46C1636.99 1390.16 1609.96 1429.97 1623.97 1472.07" stroke="#5985F4" stroke-miterlimit="10"/>
<path d="M890.628 15.0806C976.525 1.04761 1067.53 19.3232 1141.23 65.6647C1214.93 111.843 1271.15 185.435 1294.39 268.817C1312.86 335.066 1309.07 404.905 1308.74 472.785C1308.41 543.277 1313.85 610.504 1336.27 672.837C1358.69 735.007 1403.87 792.77 1470.48 819.531C1568.08 858.693 1682.99 814.799 1785.71 837.807C1893.53 861.956 1975.14 966.388 1975.47 1076.69C1975.8 1187 1893.53 1289.96 1792.47 1326.68C1749.77 1342.18 1708.55 1350.17 1672.44 1369.43C1636.34 1388.68 1604.68 1427.68 1615.4 1470.92" stroke="#5482F3" stroke-miterlimit="10"/>
<path d="M918.326 9.04498C1003.56 -3.35628 1093.25 16.0615 1165.3 62.8926C1237.35 109.724 1291.59 183.152 1313.85 265.718C1331.99 333.11 1328.19 404.254 1326.05 473.603C1323.91 544.257 1324.4 613.933 1344.19 679.529C1363.97 745.125 1407.33 807.295 1473.11 835.524C1570.88 877.46 1686.46 831.118 1790.82 852.168C1900.13 874.359 1985.69 977.812 1987.84 1088.61C1989.98 1199.4 1907.55 1305.14 1802.36 1337.29C1759 1350.5 1714.81 1354.09 1675.24 1370.9C1635.68 1387.71 1599.24 1426.05 1606.66 1470.11" stroke="#4E7FF3" stroke-miterlimit="10"/>
<path d="M945.86 2.84605C1030.27 -8.08664 1118.64 12.7997 1189.21 59.9571C1259.77 107.278 1311.87 180.706 1333.14 262.293C1350.95 330.99 1347.15 403.113 1343.03 473.931C1338.91 544.749 1334.79 616.872 1351.77 685.731C1368.75 754.591 1410.3 821.329 1475.42 851.027C1573.36 895.9 1689.59 846.785 1795.77 866.039C1906.56 885.946 1996.08 988.746 1999.87 1100.03C2003.67 1211.32 1921.23 1319.83 1812.09 1347.08C1767.9 1358.17 1721.08 1357.03 1677.88 1371.39C1634.69 1385.75 1593.63 1423.44 1597.76 1468.32" stroke="#497CF2" stroke-miterlimit="10"/>
</g>
<defs>
<linearGradient id="paint0_linear_1211_75385" x1="0" y1="0" x2="1924.03" y2="1686.66" gradientUnits="userSpaceOnUse">
<stop offset="0.110078" stop-color="#D9D9D9" stop-opacity="0"/>
<stop offset="0.508231" stop-color="#D9D9D9"/>
<stop offset="0.879341" stop-color="#D9D9D9" stop-opacity="0"/>
</linearGradient>
</defs>
</svg>
