<svg viewBox="0 0 28 28" fill="none" xmlns="http://www.w3.org/2000/svg">
<path fill-rule="evenodd" clip-rule="evenodd" d="M8.21198 20.6897C8.02812 20.2922 7.70782 19.9719 7.31029 19.788C4.21628 18.3569 1.76867 16.2932 0.462188 15.0556C-0.154064 14.4718 -0.154062 13.5281 0.462189 12.9444C1.76867 11.7067 4.21628 9.64305 7.31028 8.21199C7.70782 8.02812 8.02812 7.70782 8.21198 7.31029C9.64305 4.21629 11.7067 1.76867 12.9444 0.462188C13.5281 -0.154063 14.4718 -0.154062 15.0556 0.462189C16.2932 1.76867 18.3569 4.21629 19.788 7.31029C19.9719 7.70782 20.2922 8.02812 20.6897 8.21198C23.7838 9.64305 26.2313 11.7067 27.5378 12.9444C28.1541 13.5281 28.1541 14.4718 27.5378 15.0556C26.2313 16.2932 23.7838 18.3569 20.6897 19.788C20.2922 19.9719 19.9719 20.2922 19.788 20.6897C18.3569 23.7838 16.2932 26.2313 15.0556 27.5378C14.4718 28.1541 13.5281 28.1541 12.9444 27.5378C11.7067 26.2313 9.64305 23.7838 8.21198 20.6897ZM14 19.1462C16.8421 19.1462 19.1462 16.8421 19.1462 14C19.1462 11.1578 16.8421 8.85381 14 8.85381C11.1578 8.85381 8.85384 11.1578 8.85384 14C8.85384 16.8421 11.1578 19.1462 14 19.1462Z" fill="#3D3D3D"/>
</svg>
