<svg viewBox="0 0 460 150" fill="none" xmlns="http://www.w3.org/2000/svg">
<path d="M31.9294 127.21C26.5104 122.254 24.9284 111.842 27.1862 104.298C31.1009 109.054 36.5251 110.561 42.1435 111.411C50.817 112.724 59.3352 112.233 67.3926 108.267C68.3143 107.813 69.1661 107.208 70.1734 106.598C70.9293 108.791 71.1262 111.006 70.862 113.261C70.2199 118.752 67.4884 122.994 63.1438 126.209C61.4065 127.496 59.5683 128.645 57.774 129.858C52.2617 133.584 50.7705 137.955 52.8417 144.312C52.8909 144.467 52.9349 144.622 53.0463 145C50.2319 143.74 48.1761 141.905 46.6097 139.493C44.9553 136.947 44.1682 134.13 44.1268 131.084C44.106 129.6 44.106 128.104 43.9067 126.642C43.4199 123.078 41.7473 121.482 38.5964 121.39C35.3626 121.296 32.8045 123.296 32.1262 126.446C32.0743 126.687 31.9992 126.926 31.9243 127.206L31.9294 127.21Z" fill="white"/>
<path d="M31.9294 127.21C26.5104 122.254 24.9284 111.842 27.1862 104.298C31.1009 109.054 36.5251 110.561 42.1435 111.411C50.817 112.724 59.3352 112.233 67.3926 108.267C68.3143 107.813 69.1661 107.208 70.1734 106.598C70.9293 108.791 71.1262 111.006 70.862 113.261C70.2199 118.752 67.4884 122.994 63.1438 126.209C61.4065 127.496 59.5683 128.645 57.774 129.858C52.2617 133.584 50.7705 137.955 52.8417 144.312C52.8909 144.467 52.9349 144.622 53.0463 145C50.2319 143.74 48.1761 141.905 46.6097 139.493C44.9553 136.947 44.1682 134.13 44.1268 131.084C44.106 129.6 44.106 128.104 43.9067 126.642C43.4199 123.078 41.7473 121.482 38.5964 121.39C35.3626 121.296 32.8045 123.296 32.1262 126.446C32.0743 126.687 31.9992 126.926 31.9243 127.206L31.9294 127.21Z" fill="url(#paint0_linear_2123_1113)"/>
<path d="M1 103.041C1 103.041 17.0466 95.2212 33.1381 95.2212L45.2706 57.6586C45.7248 55.842 47.051 54.6075 48.5483 54.6075C50.0455 54.6075 51.3718 55.842 51.8261 57.6586L63.9584 95.2212C83.0162 95.2212 96.097 103.041 96.097 103.041C96.097 103.041 68.84 28.7596 68.7867 28.6106C68.0044 26.4144 66.6839 25 64.9034 25H32.196C30.4156 25 29.1483 26.4144 28.3127 28.6106C28.2538 28.7568 1 103.041 1 103.041Z" fill="#17191E"/>
<path d="M170.184 79.1473C170.184 85.7296 162 89.6606 150.668 89.6606C143.292 89.6606 140.685 87.8322 140.685 83.9926C140.685 79.97 143.922 78.0503 151.297 78.0503C157.953 78.0503 163.618 78.1416 170.184 78.9644V79.1473ZM170.274 71.0108C166.227 70.0967 160.111 69.5482 152.826 69.5482C131.601 69.5482 121.618 74.5763 121.618 86.2781C121.618 98.4371 128.453 103.1 144.282 103.1C157.683 103.1 166.766 99.717 170.095 91.3976H170.633C170.543 93.409 170.454 95.4202 170.454 96.9743C170.454 101.271 171.173 101.637 174.68 101.637H191.229C190.329 99.077 189.791 91.8547 189.791 85.6381C189.791 78.9644 190.059 73.9363 190.059 67.1712C190.059 53.3666 181.786 44.5902 155.884 44.5902C144.732 44.5902 132.32 46.5101 122.878 49.3441C123.776 53.0923 125.036 60.6803 125.665 65.617C133.85 61.7773 145.451 60.1318 154.446 60.1318C166.856 60.1318 170.274 62.9658 170.274 68.7253V71.0108Z" fill="#17191E"/>
<path d="M215.68 82.987C213.432 83.2612 210.373 83.2612 207.226 83.2612C203.898 83.2612 200.841 83.1698 198.772 82.8955C198.772 83.6269 198.682 84.4496 198.682 85.181C198.682 96.6086 206.147 103.282 232.409 103.282C257.14 103.282 265.145 96.7001 265.145 85.0896C265.145 74.1191 259.839 68.7253 236.366 67.5368C218.108 66.714 216.49 64.7028 216.49 62.4173C216.49 59.7661 218.828 58.3948 231.059 58.3948C243.741 58.3948 247.158 60.1318 247.158 63.7886V64.6114C248.957 64.5199 252.195 64.4286 255.522 64.4286C258.67 64.4286 262.087 64.5199 264.066 64.7028C264.066 63.88 264.156 63.1487 264.156 62.5087C264.156 49.0698 253.003 44.6816 231.419 44.6816C207.136 44.6816 198.952 50.624 198.952 62.2344C198.952 72.6564 205.518 79.1473 228.811 80.1529C245.988 80.7014 247.878 82.6213 247.878 85.2725C247.878 88.1065 245.09 89.3864 233.038 89.3864C219.187 89.3864 215.68 87.4666 215.68 83.5355V82.987Z" fill="#17191E"/>
<path d="M294.83 34.808C288.265 40.9333 276.483 47.0584 269.918 48.704C270.008 52.0865 270.008 58.3031 270.008 61.6857L276.033 61.7771C275.943 68.268 275.853 76.1302 275.853 81.3412C275.853 93.5001 282.238 102.642 302.114 102.642C310.479 102.642 316.055 101.728 322.98 100.265C322.26 95.7856 321.451 88.929 321.181 83.7182C317.045 85.0894 311.828 85.8208 306.072 85.8208C298.067 85.8208 294.83 83.6267 294.83 77.3187C294.83 71.8335 294.83 66.7138 294.92 61.96C305.173 62.0515 315.425 62.2342 321.451 62.4171C321.361 57.6632 321.541 50.8066 321.811 46.2356C313.088 46.4185 303.284 46.5099 295.19 46.5099C295.279 42.4874 295.369 38.6477 295.459 34.808H294.83Z" fill="#17191E"/>
<path d="M348.544 58.9431C348.634 54.1892 348.724 50.1668 348.814 46.2356H330.736C331.006 54.0979 331.006 62.1429 331.006 73.9362C331.006 85.7294 330.916 93.8659 330.736 101.637H351.422C351.062 96.1514 350.972 86.9179 350.972 79.0557C350.972 66.6225 356.009 63.0571 367.431 63.0571C372.738 63.0571 376.515 63.697 379.842 64.8855C379.932 60.223 380.832 51.1724 381.371 47.1499C377.953 46.1443 374.176 45.5043 369.589 45.5043C359.786 45.4129 352.592 49.4354 349.264 59.0346L348.544 58.9431Z" fill="#17191E"/>
<path d="M438.595 73.5706C438.595 83.5355 431.401 88.198 420.069 88.198C408.827 88.198 401.632 83.8097 401.632 73.5706C401.632 63.3315 408.917 59.4918 420.069 59.4918C431.311 59.4918 438.595 63.6058 438.595 73.5706ZM457.392 73.1135C457.392 53.2752 441.923 44.4075 420.069 44.4075C398.125 44.4075 383.195 53.2752 383.195 73.1135C383.195 92.8605 397.135 103.466 419.979 103.466C443.002 103.466 457.392 92.8605 457.392 73.1135Z" fill="#17191E"/>
<defs>
<linearGradient id="paint0_linear_2123_1113" x1="26.1906" y1="145" x2="78.5234" y2="120.284" gradientUnits="userSpaceOnUse">
<stop stop-color="#D83333"/>
<stop offset="1" stop-color="#F041FF"/>
</linearGradient>
</defs>
</svg>
