<svg viewBox="0 0 103 150" fill="none" xmlns="http://www.w3.org/2000/svg">
<path d="M33.5001 127.727C27.6307 122.358 25.9173 111.078 28.3627 102.907C32.6028 108.059 38.4777 109.691 44.563 110.612C53.9573 112.034 63.1834 111.502 71.9105 107.206C72.9088 106.714 73.8313 106.059 74.9223 105.397C75.7411 107.774 75.9543 110.174 75.6682 112.616C74.9727 118.565 72.0141 123.161 67.3085 126.643C65.4269 128.037 63.4359 129.282 61.4925 130.597C55.5221 134.633 53.9069 139.368 56.1503 146.255C56.2035 146.423 56.2512 146.59 56.3719 147C53.3236 145.635 51.097 143.647 49.4004 141.034C47.6085 138.276 46.756 135.225 46.7111 131.924C46.6887 130.317 46.6887 128.696 46.4727 127.113C45.9455 123.252 44.1339 121.523 40.7211 121.422C37.2186 121.321 34.4479 123.487 33.7132 126.899C33.6571 127.161 33.5757 127.419 33.4945 127.724L33.5001 127.727Z" fill="white"/>
<path d="M33.5001 127.727C27.6307 122.358 25.9173 111.078 28.3627 102.907C32.6028 108.059 38.4777 109.691 44.563 110.612C53.9573 112.034 63.1834 111.502 71.9105 107.206C72.9088 106.714 73.8313 106.059 74.9223 105.397C75.7411 107.774 75.9543 110.174 75.6682 112.616C74.9727 118.565 72.0141 123.161 67.3085 126.643C65.4269 128.037 63.4359 129.282 61.4925 130.597C55.5221 134.633 53.9069 139.368 56.1503 146.255C56.2035 146.423 56.2512 146.59 56.3719 147C53.3236 145.635 51.097 143.647 49.4004 141.034C47.6085 138.276 46.756 135.225 46.7111 131.924C46.6887 130.317 46.6887 128.696 46.4727 127.113C45.9455 123.252 44.1339 121.523 40.7211 121.422C37.2186 121.321 34.4479 123.487 33.7132 126.899C33.6571 127.161 33.5757 127.419 33.4945 127.724L33.5001 127.727Z" fill="url(#paint0_linear_2175_993)"/>
<path d="M0 101.544C0 101.544 17.3802 93.0729 34.8089 93.0729L47.9497 52.3801C48.4417 50.4122 49.8781 49.0747 51.4997 49.0747C53.1214 49.0747 54.558 50.4122 55.05 52.3801L68.1905 93.0729C88.8321 93.0729 103 101.544 103 101.544C103 101.544 73.4778 21.0729 73.4201 20.9114C72.5728 18.5323 71.1425 17 69.2141 17H33.7885C31.8601 17 30.4875 18.5323 29.5825 20.9114C29.5187 21.0699 0 101.544 0 101.544Z" fill="#17191E"/>
<defs>
<linearGradient id="paint0_linear_2175_993" x1="27.2843" y1="147" x2="83.9706" y2="120.234" gradientUnits="userSpaceOnUse">
<stop stop-color="#D83333"/>
<stop offset="1" stop-color="#F041FF"/>
</linearGradient>
</defs>
</svg>
