<svg viewBox="0 0 100 150" fill="none" xmlns="http://www.w3.org/2000/svg">
<path d="M35.7984 16.7646V22.7851H20.4033V4.13696H35.7984V10.735H27.0013V16.7646H35.7984ZM51.6241 10.735H57.7743V4.13696H42.3775C42.3775 4.13696 42.3775 7.44884 42.3775 10.735C44.4373 12.7948 45.5114 13.7808 48.4905 16.7599C46.749 16.7599 42.3775 16.7657 42.3775 16.7657V22.7851H57.7743V16.7646L51.6241 10.735ZM73.4458 10.735H79.5954V4.13696H64.1992C64.1992 4.13696 64.1992 7.44884 64.1992 10.735C66.2585 12.7948 67.3331 13.7808 70.3119 16.7599C68.5715 16.7599 64.1992 16.7657 64.1992 16.7657V22.7851H79.5957V16.7646L73.4458 10.735ZM99.8732 31.6478L90.5208 132.953L49.9993 143.863L9.47699 132.953L0.125977 31.6478H99.8732ZM81.0285 52.2464H49.9627H18.3478L19.8597 64.4797H49.9627H51.6536L49.9627 65.1835L20.96 77.2632L21.9219 89.2206L49.9627 89.3117L64.9916 89.3595L64.0289 105.304L49.9627 109.264V109.252L49.8473 109.284L36.2618 105.854L35.4374 95.957H35.3926H22.7912H22.7469L24.3963 115.064L49.9627 122.624V122.61L50.0086 122.624L75.4383 115.201L78.7379 77.2634H49.9627H49.8916L49.9627 77.2328L79.7909 64.48L81.0285 52.2464Z" fill="black"/>
</svg>
