<svg viewBox="0 0 100 150" fill="none" xmlns="http://www.w3.org/2000/svg">
<path d="M9.71382 4.13696H16.0116V10.3593H21.7727V4.13696H28.071V22.9793H21.7732V16.6694H16.0122V22.9793H9.71437V4.13696H9.71382ZM36.3526 10.3856H30.8087V4.13696H48.1977V10.3856H42.651V22.9793H36.3532V10.3856H36.3526ZM50.9572 4.13696H57.5252L61.5641 10.7577L65.5998 4.13696H72.1686V22.9793H65.8964V13.6403L61.5638 20.3395H61.4558L57.1202 13.6403V22.9793H50.9572V4.13696ZM75.3035 4.13696H81.603V16.7515H90.4599V22.9793H75.3035V4.13696ZM0.503906 31.5969L9.51257 132.641L49.9386 143.863L90.4768 132.625L99.4951 31.5967L0.503906 31.5969ZM80.7036 55.5758L80.1395 61.8585L79.8918 64.6443H79.851H49.9996H49.9564H32.4685L33.601 77.3337H49.9564H49.9996H75.4238H78.7636L78.4612 80.662L75.549 113.289L75.3626 115.381L49.9996 122.411V122.413L49.9427 122.429L24.5571 115.381L22.8205 95.9234H28.5545H35.2611L36.1435 105.807L49.9449 109.535L49.9564 109.531V109.53L63.7789 105.8L65.2164 89.7273H49.9996H49.9564H22.2671L19.2212 55.5758L18.9246 52.2516H49.9564H49.9996H81.0003L80.7036 55.5758Z" fill="black"/>
</svg>
