<svg viewBox="0 0 112 150" fill="none" xmlns="http://www.w3.org/2000/svg">
<path d="M99.2143 24H12.7857C6.27902 24 1 29.279 1 35.7857V122.214C1 128.721 6.27902 134 12.7857 134H99.2143C105.721 134 111 128.721 111 122.214V35.7857C111 29.279 105.721 24 99.2143 24ZM60.8616 109.79C60.8616 120.496 54.5759 125.382 45.4174 125.382C37.1429 125.382 32.3549 121.109 29.8996 115.929L38.3214 110.846C39.942 113.719 41.4152 116.15 44.9754 116.15C48.3638 116.15 50.5246 114.824 50.5246 109.643V74.5067H60.8616V109.79ZM85.317 125.382C75.7165 125.382 69.5045 120.815 66.4844 114.824L74.9063 109.962C77.1161 113.571 80.0134 116.248 85.096 116.248C89.3683 116.248 92.1183 114.112 92.1183 111.141C92.1183 107.605 89.3192 106.353 84.5804 104.266L82.0022 103.161C74.5379 99.9933 69.6027 95.9911 69.6027 87.5692C69.6027 79.8102 75.5201 73.9175 84.7277 73.9175C91.308 73.9175 96.0223 76.2009 99.4107 82.1919L91.3572 87.3482C89.5893 84.1808 87.6741 82.9286 84.7031 82.9286C81.683 82.9286 79.7679 84.8438 79.7679 87.3482C79.7679 90.4419 81.683 91.6942 86.1272 93.6339L88.7054 94.7388C97.4955 98.4956 102.431 102.35 102.431 110.993C102.431 120.275 95.1138 125.382 85.317 125.382Z" fill="black"/>
</svg>
