<svg viewBox="0 0 386 150" fill="none" xmlns="http://www.w3.org/2000/svg">
<path d="M1 107.964H32.9638V76C28.7663 75.9986 24.6098 76.8243 20.7322 78.4305C16.8548 80.0362 13.3325 82.3909 10.3672 85.3591C4.37315 91.3582 1.00456 99.4872 1 107.964Z" fill="#211D1D"/>
<path d="M1 75.9987V44.0349H32.9638C32.952 52.5166 29.584 60.6483 23.5966 66.6507C20.6344 69.6262 17.1122 71.9847 13.2335 73.5894C9.35486 75.1937 5.19688 76.0125 1 75.9987Z" fill="#211D1D"/>
<path d="M32.9648 75.9987H64.9288V44.0349C56.4559 44.0349 48.33 47.4016 42.3365 53.3952C36.3429 59.3888 32.9721 67.5188 32.9648 75.9987Z" fill="#211D1D"/>
<path d="M141.099 43.3415V57.5893H130.974C119.452 57.5893 112.507 63.3013 112.507 75.4397V107.895H96.8955V43.9582H111.89V55.3824C113.369 51.5757 116.007 48.3305 119.432 46.1056C122.857 43.8808 126.894 42.7889 130.974 42.9845C132.466 43.1143 139.736 43.1143 141.099 43.3415Z" fill="#211D1D"/>
<path d="M207.321 80.867H159.482C160.618 92.2586 167.044 97.354 176.099 97.354C179.195 97.583 182.283 96.8145 184.911 95.1622C187.539 93.5094 189.569 91.0587 190.704 88.1694H205.698C202.453 101.152 191.32 109.493 175.969 109.493C157.145 109.493 144.131 96.5103 144.131 76.031C144.131 55.552 156.756 42.5701 175.71 42.5701C195.183 42.5701 207.321 56.8502 207.321 77.1673V80.867ZM159.612 69.9622H191.71C190.477 60.9396 184.894 54.7407 175.482 54.7407C167.206 54.7407 161.105 59.4467 159.612 69.9622Z" fill="#211D1D"/>
<path d="M281.412 76.0328C281.412 96.3497 270.377 109.494 252.787 109.494C248.929 109.671 245.089 108.871 241.623 107.169C238.156 105.467 235.175 102.918 232.957 99.7573V132.213H217.346V44.0646H232.34V53.2494C234.514 49.8345 237.547 47.0508 241.136 45.1769C244.724 43.3029 248.742 42.4045 252.787 42.5717C270.377 42.5717 281.412 55.716 281.412 76.0328ZM265.541 75.5459C265.541 62.0447 259.245 55.4888 249.087 55.4888C238.928 55.4888 232.6 62.5314 232.6 76.0328C232.6 89.5342 238.896 96.6096 249.087 96.6096C259.277 96.6096 265.541 89.0473 265.541 75.5459Z" fill="#211D1D"/>
<path d="M291.203 19.786H306.749V107.999H291.139L291.203 19.786Z" fill="#211D1D"/>
<path d="M316.487 76.031C316.487 55.7143 329.631 42.5701 349.104 42.5701C368.577 42.5701 381.56 55.7143 381.56 76.031C381.56 96.3479 368.577 109.493 349.104 109.493C329.631 109.493 316.487 96.5103 316.487 76.031ZM365.689 76.031C365.689 62.53 359.198 55.4871 349.104 55.4871C339.011 55.4871 332.487 62.53 332.487 76.031C332.487 89.5323 338.979 96.6077 349.104 96.6077C359.23 96.6077 365.787 89.5323 365.787 76.031H365.689Z" fill="#211D1D"/>
</svg>
