<svg viewBox="0 0 145 150" fill="none" xmlns="http://www.w3.org/2000/svg">
<path d="M140.935 93.6929L135.534 84.6265L109.428 99.9831L138.422 64.3296L142.805 61.846L141.831 60.1451L143.714 57.8235L137.748 53.0271L136.978 51.6862L136.449 51.9831L134.561 50.4713L130.668 55.2588L45.9297 103.277L77.1016 67.0832L135.317 36.2756L129.785 25.9494L98.0791 42.7277L113.688 24.6085L104.743 17L69.6051 57.7965L34.703 76.2711L61.4251 42.1653L78.1653 33.7558L72.8509 23.3172L24.0647 47.8346L37.3738 30.8403L28.0847 23.6547L0 59.5332L0.439105 59.8707L5.68574 70.1833L36.8124 54.5389L8.44261 90.7457L13.0826 94.3408L15.8486 99.5017L48.6321 82.1519L12.5394 124.06L21.4799 131.668L23.2772 129.58L110.347 80.2396L81.4383 115.785L81.9091 116.163L81.8637 116.195L87.8573 126.26L126.304 103.646L111.506 126.71L121.429 133L145 96.2711L140.935 93.6929Z" fill="black"/>
</svg>
