<svg viewBox="0 0 106 150" fill="none" xmlns="http://www.w3.org/2000/svg">
<path d="M92.7823 36.071C92.6959 35.4663 92.1776 35.1207 91.7456 35.1207C91.3137 35.1207 82.7611 34.9479 82.7611 34.9479C82.7611 34.9479 75.5908 28.0368 74.8997 27.2593C74.2086 26.5681 72.8263 26.7409 72.308 26.9137C72.308 26.9137 70.9258 27.3456 68.6797 28.0368C68.3341 26.8273 67.7294 25.3587 66.9519 23.8037C64.4466 18.9659 60.6454 16.3742 56.1532 16.3742C55.8076 16.3742 55.5484 16.3742 55.2029 16.4606C55.0301 16.2878 54.9437 16.115 54.7709 16.0286C52.784 13.9553 50.2787 12.9186 47.2551 13.005C41.467 13.1778 35.6789 17.4109 30.9274 24.8403C27.6446 30.1101 25.1393 36.6757 24.3618 41.7727C17.7098 43.846 13.0448 45.3147 12.872 45.3147C9.50284 46.3513 9.41646 46.4377 8.98451 49.6341C8.81173 52.053 0 120.214 0 120.214L73.9494 133L106 125.052C105.914 125.052 92.8687 36.6757 92.7823 36.071ZM64.9649 29.2462C63.2371 29.7646 61.3365 30.3693 59.2632 31.0604C59.2632 28.1232 58.8312 23.9765 57.5354 20.5209C61.9413 21.212 64.101 26.2226 64.9649 29.2462ZM55.3757 32.1835C51.4881 33.3929 47.2551 34.6888 43.022 35.9846C44.2314 31.406 46.4776 26.9137 49.242 23.8901C50.2787 22.767 51.7473 21.5575 53.3887 20.8664C55.1165 24.2356 55.4621 28.987 55.3757 32.1835ZM47.4278 16.8925C48.8101 16.8925 49.9331 17.1517 50.8834 17.8428C49.3284 18.6203 47.7734 19.8298 46.3912 21.3848C42.6764 25.3587 39.8256 31.4923 38.7025 37.4532C35.1605 38.5763 31.7049 39.613 28.5949 40.5632C30.6683 31.1468 38.5297 17.1517 47.4278 16.8925Z" fill="#95BF47"/>
<path d="M91.7455 35.1207C91.3135 35.1207 82.761 34.9479 82.761 34.9479C82.761 34.9479 75.5906 28.0367 74.8995 27.2592C74.6403 27 74.2948 26.8273 73.9492 26.8273V133L106 125.052C106 125.052 92.9549 36.6757 92.8685 36.0709C92.6957 35.4662 92.1774 35.1207 91.7455 35.1207Z" fill="#5E8E3E"/>
<path d="M56.1527 51.6211L52.4379 65.5298C52.4379 65.5298 48.2912 63.6292 43.367 63.9748C36.1103 64.4068 36.1103 68.9854 36.1103 70.1085C36.5422 76.3285 52.8699 77.7107 53.8201 92.3106C54.5113 103.8 47.7729 111.662 37.9245 112.267C26.1755 112.871 19.6963 105.96 19.6963 105.96L22.2016 95.3342C22.2016 95.3342 28.7672 100.258 33.9506 99.9128C37.3197 99.7401 38.6156 96.8892 38.4428 94.9886C37.9245 86.868 24.6205 87.3864 23.7566 73.996C23.0655 62.7654 30.4086 51.4483 46.6498 50.4117C52.9562 49.9797 56.1527 51.6211 56.1527 51.6211Z" fill="white"/>
</svg>
