<svg viewBox="0 0 422 150" fill="none" xmlns="http://www.w3.org/2000/svg">
<path d="M91.2521 38.7731C91.1681 38.1849 90.6639 37.8488 90.2437 37.8488C89.8235 37.8488 81.5042 37.6807 81.5042 37.6807C81.5042 37.6807 74.5294 30.958 73.8571 30.2017C73.1849 29.5294 71.8403 29.6975 71.3361 29.8656C71.3361 29.8656 69.9916 30.2857 67.8067 30.958C67.4706 29.7815 66.8824 28.353 66.1261 26.8404C63.6891 22.1345 59.9916 19.6135 55.6219 19.6135C55.2857 19.6135 55.0336 19.6135 54.6975 19.6975C54.5294 19.5294 54.4454 19.3614 54.2773 19.2773C52.3445 17.2605 49.9076 16.2521 46.9664 16.3362C41.3361 16.5042 35.7059 20.6219 31.084 27.8488C27.8908 32.9748 25.4538 39.3614 24.6975 44.3193C18.2269 46.3362 13.6891 47.7647 13.521 47.7647C10.2437 48.7731 10.1597 48.8572 9.7395 51.9664C9.57143 54.3193 1 120.622 1 120.622L72.9328 133.059L104.109 125.328C104.025 125.328 91.3361 39.3614 91.2521 38.7731ZM64.1933 32.1345C62.5126 32.6387 60.6639 33.2269 58.6471 33.8992C58.6471 31.042 58.2269 27.0084 56.9664 23.6471C61.2521 24.3193 63.3529 29.1933 64.1933 32.1345ZM54.8655 34.9916C51.084 36.1681 46.9664 37.4286 42.8487 38.6891C44.0252 34.2353 46.2101 29.8656 48.8992 26.9244C49.9076 25.832 51.3361 24.6555 52.9328 23.9832C54.6134 27.2605 54.9496 31.8824 54.8655 34.9916ZM47.1345 20.1177C48.479 20.1177 49.5714 20.3698 50.4958 21.042C48.9832 21.7983 47.4706 22.9748 46.1261 24.4874C42.5126 28.353 39.7395 34.3193 38.6471 40.1177C35.2017 41.2101 31.8403 42.2185 28.8151 43.1429C30.8319 33.9832 38.479 20.3698 47.1345 20.1177Z" fill="#95BF47"/>
<path d="M90.2435 37.8487C89.8234 37.8487 81.5041 37.6807 81.5041 37.6807C81.5041 37.6807 74.5293 30.958 73.857 30.2017C73.6049 29.9496 73.2688 29.7815 72.9326 29.7815V133.059L104.109 125.328C104.109 125.328 91.42 39.3613 91.336 38.7731C91.1679 38.1849 90.6637 37.8487 90.2435 37.8487Z" fill="#5E8E3E"/>
<path d="M55.6214 53.8991L52.0079 67.4285C52.0079 67.4285 47.9743 65.5798 43.1844 65.9159C36.1256 66.3361 36.1256 70.7899 36.1256 71.8823C36.5457 77.9328 52.4281 79.2773 53.3525 93.479C54.0247 104.655 47.4701 112.302 37.8903 112.891C26.4617 113.479 20.1592 106.756 20.1592 106.756L22.5962 96.4201C22.5962 96.4201 28.9827 101.21 34.0247 100.874C37.302 100.706 38.5625 97.9328 38.3945 96.084C37.8903 88.1849 24.9491 88.6891 24.1088 75.6638C23.4365 64.7395 30.5793 53.7311 46.3777 52.7227C52.5121 52.3025 55.6214 53.8991 55.6214 53.8991Z" fill="white"/>
<path d="M146.294 82.7227C142.681 80.7899 140.832 79.1092 140.832 76.8403C140.832 73.9832 143.437 72.1345 147.471 72.1345C152.177 72.1345 156.378 74.0672 156.378 74.0672L159.656 63.9832C159.656 63.9832 156.631 61.6302 147.723 61.6302C135.286 61.6302 126.631 68.7731 126.631 78.7731C126.631 84.4874 130.664 88.7731 136.042 91.8824C140.412 94.3193 141.925 96.084 141.925 98.6891C141.925 101.378 139.74 103.563 135.706 103.563C129.74 103.563 124.026 100.454 124.026 100.454L120.496 110.538C120.496 110.538 125.706 114.067 134.53 114.067C147.303 114.067 156.547 107.765 156.547 96.4202C156.462 90.2857 151.841 85.916 146.294 82.7227Z" fill="black"/>
<path d="M197.218 61.4622C190.916 61.4622 185.958 64.4874 182.176 69.0252L182.008 68.9412L187.471 40.3698H173.269L159.403 113.143H173.605L178.311 88.2689C180.16 78.8571 185.034 73.0588 189.571 73.0588C192.765 73.0588 194.025 75.2437 194.025 78.3529C194.025 80.2857 193.857 82.7227 193.437 84.6555L188.059 113.143H202.26L207.807 83.7311C208.395 80.6218 208.815 76.9244 208.815 74.4034C208.899 66.3361 204.697 61.4622 197.218 61.4622Z" fill="black"/>
<path d="M241.084 61.4622C223.941 61.4622 212.597 76.9243 212.597 94.1512C212.597 105.16 219.403 114.067 232.177 114.067C248.983 114.067 260.328 99.0252 260.328 81.3781C260.412 71.2101 254.445 61.4622 241.084 61.4622ZM234.109 103.227C229.235 103.227 227.219 99.1092 227.219 93.8991C227.219 85.7479 231.42 72.4706 239.151 72.4706C244.193 72.4706 245.874 76.8403 245.874 81.042C245.874 89.7815 241.588 103.227 234.109 103.227Z" fill="black"/>
<path d="M296.799 61.4622C287.219 61.4622 281.757 69.9496 281.757 69.9496H281.589L282.429 62.3025H269.824C269.236 67.4285 268.059 75.3277 266.967 81.2101L257.051 133.311H271.252L275.202 112.218H275.538C275.538 112.218 278.479 114.067 283.858 114.067C300.58 114.067 311.505 96.9243 311.505 79.6134C311.505 70.0336 307.219 61.4622 296.799 61.4622ZM283.185 103.395C279.488 103.395 277.303 101.294 277.303 101.294L279.656 88.0168C281.336 79.1092 285.958 73.2269 290.916 73.2269C295.286 73.2269 296.631 77.2605 296.631 81.042C296.631 90.2857 291.168 103.395 283.185 103.395Z" fill="black"/>
<path d="M331.841 41.042C327.303 41.042 323.689 44.6554 323.689 49.2773C323.689 53.479 326.379 56.4201 330.412 56.4201H330.58C335.034 56.4201 338.816 53.3949 338.9 48.1848C338.9 44.0672 336.126 41.042 331.841 41.042Z" fill="black"/>
<path d="M311.925 113.059H326.126L335.79 62.6387H321.505L311.925 113.059Z" fill="black"/>
<path d="M372.009 62.5546H362.093L362.597 60.2017C363.438 55.3277 366.295 51.042 371.085 51.042C373.606 51.042 375.622 51.7983 375.622 51.7983L378.396 40.6218C378.396 40.6218 375.959 39.3613 370.664 39.3613C365.622 39.3613 360.58 40.7899 356.715 44.0672C351.841 48.1849 349.572 54.1512 348.48 60.2017L348.059 62.5546H341.421L339.32 73.3109H345.959L338.396 113.143H352.597L360.16 73.3109H369.992L372.009 62.5546Z" fill="black"/>
<path d="M406.294 62.6387C406.294 62.6387 397.387 85.0757 393.437 97.3446H393.269C393.017 93.395 389.74 62.6387 389.74 62.6387H374.782L383.353 108.941C383.521 109.95 383.437 110.622 383.017 111.294C381.336 114.487 378.563 117.597 375.286 119.866C372.597 121.798 369.572 123.059 367.219 123.899L371.168 136C374.025 135.412 380.076 132.975 385.118 128.269C391.589 122.219 397.639 112.807 403.773 100.034L421.168 62.6387H406.294Z" fill="black"/>
</svg>
