<svg viewBox="0 0 800 150" fill="none" xmlns="http://www.w3.org/2000/svg">
<path fill-rule="evenodd" clip-rule="evenodd" d="M84.8182 26C63 26 49.3636 36.9091 43.9091 58.7273C52.0909 47.8182 61.6364 43.7273 72.5455 46.4545C78.7697 48.0091 83.2182 52.5273 88.1424 57.5242C96.1636 65.6667 105.448 75.0909 125.727 75.0909C147.545 75.0909 161.182 64.1818 166.636 42.3636C158.455 53.2727 148.909 57.3636 138 54.6364C131.776 53.0818 127.327 48.5636 122.403 43.5667C114.382 35.4242 105.097 26 84.8182 26ZM43.9091 75.0909C22.0909 75.0909 8.45455 86 3 107.818C11.1818 96.9091 20.7273 92.8182 31.6364 95.5455C37.8606 97.103 42.3091 101.618 47.2333 106.615C55.2545 114.758 64.5394 124.182 84.8182 124.182C106.636 124.182 120.273 113.273 125.727 91.4545C117.545 102.364 108 106.455 97.0909 103.727C90.8667 102.173 86.4182 97.6545 81.4939 92.6576C73.4727 84.5152 64.1879 75.0909 43.9091 75.0909Z" fill="#38BDF8"/>
<path fill-rule="evenodd" clip-rule="evenodd" d="M248.443 67.3697H234.164V95.006C234.164 102.376 239 102.261 248.443 101.8V112.97C229.328 115.273 221.728 109.976 221.728 95.006V67.3697H211.134V55.3939H221.728V39.9272L234.164 36.2424V55.3939H248.443V67.3697ZM302.873 55.3939H315.31V112.97H302.873V104.679C298.497 110.782 291.703 114.467 282.722 114.467C267.061 114.467 254.049 101.224 254.049 84.1818C254.049 67.0242 267.061 53.8969 282.722 53.8969C291.703 53.8969 298.497 57.5818 302.873 63.5697V55.3939ZM284.679 102.606C295.043 102.606 302.873 94.8909 302.873 84.1818C302.873 73.4727 295.043 65.7575 284.679 65.7575C274.316 65.7575 266.485 73.4727 266.485 84.1818C266.485 94.8909 274.316 102.606 284.679 102.606ZM336.037 46.7575C331.661 46.7575 328.091 43.0727 328.091 38.8121C328.095 36.7061 328.934 34.6874 330.423 33.1982C331.912 31.709 333.931 30.8706 336.037 30.8666C338.143 30.8706 340.162 31.709 341.651 33.1982C343.14 34.6874 343.978 36.7061 343.982 38.8121C343.982 43.0727 340.413 46.7575 336.037 46.7575ZM329.819 112.97V55.3939H342.255V112.97H329.819ZM356.649 112.97V28.9091H369.085V112.97H356.649ZM449.807 55.3939H462.934L444.855 112.97H432.649L420.673 74.1636L408.582 112.97H396.376L378.297 55.3939H391.425L402.594 95.1212L414.685 55.3939H426.546L438.522 95.1212L449.807 55.3939ZM478.364 46.7575C473.988 46.7575 470.419 43.0727 470.419 38.8121C470.423 36.7061 471.261 34.6874 472.75 33.1982C474.239 31.709 476.258 30.8706 478.364 30.8666C480.47 30.8706 482.489 31.709 483.978 33.1982C485.467 34.6874 486.306 36.7061 486.31 38.8121C486.31 43.0727 482.74 46.7575 478.364 46.7575ZM472.146 112.97V55.3939H484.582V112.97H472.146ZM529.261 53.8969C542.158 53.8969 551.37 62.6485 551.37 77.6182V112.97H538.934V78.8848C538.934 70.1333 533.867 65.5272 526.037 65.5272C517.861 65.5272 511.413 70.3636 511.413 82.1091V112.97H498.976V55.3939H511.413V62.7636C515.213 56.7757 521.431 53.8969 529.261 53.8969ZM610.328 32.3636H622.764V112.97H610.328V104.679C605.952 110.782 599.158 114.467 590.176 114.467C574.516 114.467 561.504 101.224 561.504 84.1818C561.504 67.0242 574.516 53.8969 590.176 53.8969C599.158 53.8969 605.952 57.5818 610.328 63.5697V32.3636ZM592.134 102.606C602.497 102.606 610.328 94.8909 610.328 84.1818C610.328 73.4727 602.497 65.7575 592.134 65.7575C581.77 65.7575 573.94 73.4727 573.94 84.1818C573.94 94.8909 581.77 102.606 592.134 102.606ZM664.449 114.467C647.061 114.467 634.049 101.224 634.049 84.1818C634.049 67.0242 647.061 53.8969 664.449 53.8969C675.734 53.8969 685.522 59.7697 690.128 68.7515L679.419 74.9697C676.885 69.5575 671.243 66.103 664.334 66.103C654.201 66.103 646.485 73.8182 646.485 84.1818C646.485 94.5454 654.201 102.261 664.334 102.261C671.243 102.261 676.885 98.6909 679.649 93.3939L690.358 99.4969C685.522 108.594 675.734 114.467 664.449 114.467ZM710.855 71.2848C710.855 81.7636 741.831 75.4303 741.831 96.7333C741.831 108.248 731.813 114.467 719.376 114.467C707.861 114.467 699.57 109.285 695.885 100.994L706.595 94.7757C708.437 99.9575 713.043 103.067 719.376 103.067C724.904 103.067 729.164 101.224 729.164 96.6182C729.164 86.3697 698.188 92.1272 698.188 71.5151C698.188 60.6909 707.516 53.8969 719.261 53.8969C728.704 53.8969 736.534 58.2727 740.564 65.8727L730.085 71.7454C728.013 67.2545 723.982 65.1818 719.261 65.1818C714.77 65.1818 710.855 67.1394 710.855 71.2848ZM763.94 71.2848C763.94 81.7636 794.916 75.4303 794.916 96.7333C794.916 108.248 784.898 114.467 772.461 114.467C760.946 114.467 752.655 109.285 748.97 100.994L759.679 94.7757C761.522 99.9575 766.128 103.067 772.461 103.067C777.988 103.067 782.249 101.224 782.249 96.6182C782.249 86.3697 751.273 92.1272 751.273 71.5151C751.273 60.6909 760.601 53.8969 772.346 53.8969C781.788 53.8969 789.619 58.2727 793.649 65.8727L783.17 71.7454C781.098 67.2545 777.067 65.1818 772.346 65.1818C767.855 65.1818 763.94 67.1394 763.94 71.2848Z" fill="#0F172A"/>
</svg>
