<svg viewBox="0 0 600 150" fill="none" xmlns="http://www.w3.org/2000/svg">
<path fill-rule="evenodd" clip-rule="evenodd" d="M161.42 26.3779L110.551 125.84H62.7705L84.0591 84.6188H83.1041C65.5412 107.422 39.337 122.434 2 125.84V85.1895C2 85.1895 25.8853 83.7784 39.9269 69.0127H2V26.3787H44.6257V61.4446L45.5824 61.4406L63.0008 26.3787H95.2376V61.2222L96.1943 61.2207L114.266 26.3779H161.42Z" fill="#146EF5"/>
<path d="M438.81 114.862H452.537V36.048H438.81V114.862Z" fill="#080808"/>
<path fill-rule="evenodd" clip-rule="evenodd" d="M363.13 114.057C366.114 115.298 369.147 115.918 372.232 115.918C377.328 115.918 381.886 114.677 385.909 112.196C389.932 109.715 393.05 106.295 395.263 101.936C397.476 97.5431 398.581 92.5641 398.581 86.9978C398.581 81.4315 397.442 76.4524 395.162 72.0599C392.883 67.6674 389.715 64.264 385.658 61.8498C381.602 59.4021 376.992 58.195 371.829 58.2285C368.544 58.2285 365.393 58.8656 362.376 60.1398C359.358 61.4139 356.844 63.2246 354.832 65.5717C354.677 65.7504 354.526 65.9309 354.38 66.1132V36.0983H340.602V114.862H354.28L354.252 107.504C354.606 107.938 354.984 108.361 355.386 108.776C357.565 111.023 360.146 112.783 363.13 114.057ZM377.21 101.332C374.964 102.707 372.399 103.395 369.516 103.395C366.667 103.395 364.052 102.69 361.672 101.282C359.291 99.8398 357.397 97.8785 355.989 95.3973C354.615 92.9161 353.928 90.0995 353.928 86.9475C353.894 83.7956 354.565 80.979 355.939 78.4978C357.347 75.983 359.241 74.0382 361.621 72.6635C364.001 71.2552 366.633 70.5678 369.516 70.6013C372.399 70.5678 374.964 71.2384 377.21 72.6131C379.49 73.9543 381.233 75.8824 382.44 78.3972C383.68 80.8784 384.3 83.7288 384.3 86.9475C384.3 90.1663 383.68 93.0166 382.44 95.4978C381.233 97.979 379.49 99.9238 377.21 101.332Z" fill="#080808"/>
<path d="M181.308 40.826H196.997L211.032 92.0911L225.962 40.826H239.036L255.229 91.0624L268.705 40.826H283.087L261.866 114.862H248.339L231.874 65.7849L216.759 114.862H203.081L181.308 40.826Z" fill="#080808"/>
<path fill-rule="evenodd" clip-rule="evenodd" d="M306.256 116.17C300.791 116.203 295.863 114.996 291.471 112.548C287.114 110.067 283.677 106.63 281.163 102.238C278.682 97.8447 277.441 92.832 277.441 87.1989C277.441 81.7337 278.716 76.7876 281.263 72.3616C283.811 67.9355 287.264 64.4819 291.622 62.0006C295.98 59.5194 300.841 58.2787 306.205 58.2787C312.24 58.2787 317.52 59.62 322.045 62.3024C326.605 64.9848 330.007 68.7906 332.253 73.7196C334.533 78.615 335.354 84.2315 334.718 90.5685H291.644C291.764 93.0933 292.394 95.3906 293.533 97.4591C294.807 99.7392 296.584 101.517 298.863 102.791C301.143 104.065 303.691 104.702 306.507 104.702C308.652 104.668 310.647 104.299 312.491 103.596C314.335 102.858 315.894 101.868 317.168 100.628C318.475 99.3872 319.397 97.979 319.933 96.4033H334.315C333.444 100.259 331.7 103.696 329.085 106.714C326.471 109.698 323.185 112.028 319.229 113.705C315.273 115.381 310.949 116.203 306.256 116.17ZM293.584 76.7373C292.78 78.1386 292.224 79.6475 291.914 81.264H320.466C320.259 79.2217 319.629 77.3608 318.575 75.6811C317.369 73.7028 315.726 72.1771 313.648 71.1042C311.569 69.9977 309.222 69.4444 306.608 69.4444C303.825 69.4444 301.294 70.0815 299.015 71.3556C296.735 72.6298 294.924 74.4237 293.584 76.7373Z" fill="#080808"/>
<path d="M408.688 59.4356C408.688 54.9424 409.711 50.9523 411.756 47.4651C413.801 43.9444 416.667 41.2117 420.355 39.2669C424.076 37.2886 428.417 36.2659 433.379 36.1989V48.4207C431.065 48.4543 429.088 48.9405 427.445 49.8793C425.836 50.7847 424.595 52.1091 423.724 53.8527C422.921 55.4579 422.488 57.3189 422.425 59.4356H433.077V71.0539H422.416V114.862H408.688V71.0539H399.838V59.4356H408.688Z" fill="#080808"/>
<path fill-rule="evenodd" clip-rule="evenodd" d="M487.436 116.069C481.838 116.069 476.826 114.845 472.4 112.397C468.009 109.916 464.556 106.496 462.042 102.137C459.561 97.7441 458.32 92.7651 458.32 87.1988C458.32 81.5994 459.561 76.6032 462.042 72.2107C464.556 67.7846 468.009 64.3477 472.4 61.9C476.826 59.4523 481.838 58.2284 487.436 58.2284C493.068 58.2284 498.097 59.4523 502.522 61.9C506.981 64.3477 510.45 67.7678 512.931 72.1604C515.412 76.5529 516.669 81.5657 516.703 87.1988C516.669 92.7651 515.412 97.7441 512.931 102.137C510.484 106.496 507.031 109.916 502.572 112.397C498.114 114.845 493.068 116.069 487.436 116.069ZM487.436 103.445C490.386 103.445 493.001 102.774 495.281 101.433C497.561 100.058 499.321 98.1464 500.561 95.6988C501.801 93.2176 502.422 90.3845 502.422 87.1988C502.422 83.98 501.801 81.1298 500.561 78.6486C499.321 76.1673 497.561 74.2561 495.281 72.9148C493.001 71.5401 490.386 70.8527 487.436 70.8527C484.52 70.8527 481.922 71.5401 479.642 72.9148C477.396 74.2561 475.652 76.1673 474.412 78.6486C473.172 81.1298 472.568 83.98 472.602 87.1988C472.602 90.3845 473.222 93.2176 474.462 95.6988C475.736 98.1464 477.48 100.058 479.692 101.433C481.938 102.774 484.52 103.445 487.436 103.445Z" fill="#080808"/>
<path d="M531.537 59.4355H516.25L532.794 114.862H546.17L557.051 79.4611L568.801 114.862H581.975L598.568 59.4355H584.742L575.33 93.9348L564.928 59.4355H551.551L541.199 94.695L531.537 59.4355Z" fill="#080808"/>
</svg>
