<svg viewBox="0 0 124 150" fill="none" xmlns="http://www.w3.org/2000/svg">
<path fill-rule="evenodd" clip-rule="evenodd" d="M99.2552 110.929L121.864 41.2018C123.637 35.7349 120.645 29.8514 115.19 28.0765C109.734 26.3017 103.863 29.2975 102.092 34.7644L79.4837 104.489C77.7099 109.955 80.7021 115.839 86.1575 117.614C91.6129 119.391 97.4843 116.396 99.2552 110.929Z" fill="url(#paint0_linear_2123_1137)"/>
<path fill-rule="evenodd" clip-rule="evenodd" d="M99.2552 110.929L121.864 41.2018C123.637 35.7349 120.645 29.8514 115.19 28.0765C109.734 26.3017 103.863 29.2975 102.092 34.7644L79.4837 104.489C77.7099 109.955 80.7021 115.839 86.1575 117.614C91.6129 119.391 97.4843 116.396 99.2552 110.929Z" fill="url(#paint1_linear_2123_1137)"/>
<path fill-rule="evenodd" clip-rule="evenodd" d="M99.2552 110.929L121.864 41.2018C123.637 35.7349 120.645 29.8514 115.19 28.0765C109.734 26.3017 103.863 29.2975 102.092 34.7644L79.4837 104.489C77.7099 109.955 80.7021 115.839 86.1575 117.614C91.6129 119.391 97.4843 116.396 99.2552 110.929Z" fill="url(#paint2_linear_2123_1137)" fill-opacity="0.8"/>
<path fill-rule="evenodd" clip-rule="evenodd" d="M99.2552 110.929L121.864 41.2018C123.637 35.7349 120.645 29.8514 115.19 28.0765C109.734 26.3017 103.863 29.2975 102.092 34.7644L79.4837 104.489C77.7099 109.955 80.7021 115.839 86.1575 117.614C91.6129 119.391 97.4843 116.396 99.2552 110.929Z" fill="url(#paint3_radial_2123_1137)"/>
<path fill-rule="evenodd" clip-rule="evenodd" d="M99.2552 110.929L121.864 41.2018C123.637 35.7349 120.645 29.8514 115.19 28.0765C109.734 26.3017 103.863 29.2975 102.092 34.7644L79.4837 104.489C77.7099 109.955 80.7021 115.839 86.1575 117.614C91.6129 119.391 97.4843 116.396 99.2552 110.929Z" fill="url(#paint4_radial_2123_1137)"/>
<path fill-rule="evenodd" clip-rule="evenodd" d="M99.2552 110.929L121.864 41.2018C123.637 35.7349 120.645 29.8514 115.19 28.0765C109.734 26.3017 103.863 29.2975 102.092 34.7644L79.4837 104.489C77.7099 109.955 80.7021 115.839 86.1575 117.614C91.6129 119.391 97.4843 116.396 99.2552 110.929Z" fill="url(#paint5_radial_2123_1137)"/>
<path fill-rule="evenodd" clip-rule="evenodd" d="M61.9971 69.6013C64.5629 69.6013 66.455 71.107 68.0681 72.9951C69.8606 75.0972 71.2919 77.7029 72.5078 80.4693C77.974 92.8873 78.9977 108.423 78.9977 108.423C79.3895 114.159 84.3556 118.495 90.0796 118.101C95.8031 117.709 100.129 112.73 99.7376 106.996C99.7376 106.996 98.364 87.5921 91.5296 72.0616C85.6685 58.7441 75.7448 48.7676 61.9995 48.7676C48.2548 48.7676 38.3307 58.7441 32.4701 72.0616C25.6331 87.5921 24.262 106.996 24.262 106.996C23.8699 112.732 28.1963 117.709 33.9201 118.101C39.6439 118.495 44.6101 114.159 45.0019 108.423C45.0019 108.423 46.0256 92.8903 51.4913 80.4693C52.7072 77.7054 54.139 75.0972 55.931 72.9951C57.5417 71.107 59.4337 69.6013 61.9971 69.6013Z" fill="#E63CFE"/>
<path fill-rule="evenodd" clip-rule="evenodd" d="M61.9971 69.6013C64.5629 69.6013 66.455 71.107 68.0681 72.9951C69.8606 75.0972 71.2919 77.7029 72.5078 80.4693C77.974 92.8873 78.9977 108.423 78.9977 108.423C79.3895 114.159 84.3556 118.495 90.0796 118.101C95.8031 117.709 100.129 112.73 99.7376 106.996C99.7376 106.996 98.364 87.5921 91.5296 72.0616C85.6685 58.7441 75.7448 48.7676 61.9995 48.7676C48.2548 48.7676 38.3307 58.7441 32.4701 72.0616C25.6331 87.5921 24.262 106.996 24.262 106.996C23.8699 112.732 28.1963 117.709 33.9201 118.101C39.6439 118.495 44.6101 114.159 45.0019 108.423C45.0019 108.423 46.0256 92.8903 51.4913 80.4693C52.7072 77.7054 54.139 75.0972 55.931 72.9951C57.5417 71.107 59.4337 69.6013 61.9971 69.6013Z" fill="url(#paint6_radial_2123_1137)"/>
<path fill-rule="evenodd" clip-rule="evenodd" d="M61.9971 69.6013C64.5629 69.6013 66.455 71.107 68.0681 72.9951C69.8606 75.0972 71.2919 77.7029 72.5078 80.4693C77.974 92.8873 78.9977 108.423 78.9977 108.423C79.3895 114.159 84.3556 118.495 90.0796 118.101C95.8031 117.709 100.129 112.73 99.7376 106.996C99.7376 106.996 98.364 87.5921 91.5296 72.0616C85.6685 58.7441 75.7448 48.7676 61.9995 48.7676C48.2548 48.7676 38.3307 58.7441 32.4701 72.0616C25.6331 87.5921 24.262 106.996 24.262 106.996C23.8699 112.732 28.1963 117.709 33.9201 118.101C39.6439 118.495 44.6101 114.159 45.0019 108.423C45.0019 108.423 46.0256 92.8903 51.4913 80.4693C52.7072 77.7054 54.139 75.0972 55.931 72.9951C57.5417 71.107 59.4337 69.6013 61.9971 69.6013Z" fill="url(#paint7_radial_2123_1137)"/>
<path fill-rule="evenodd" clip-rule="evenodd" d="M61.9971 69.6013C64.5629 69.6013 66.455 71.107 68.0681 72.9951C69.8606 75.0972 71.2919 77.7029 72.5078 80.4693C77.974 92.8873 78.9977 108.423 78.9977 108.423C79.3895 114.159 84.3556 118.495 90.0796 118.101C95.8031 117.709 100.129 112.73 99.7376 106.996C99.7376 106.996 98.364 87.5921 91.5296 72.0616C85.6685 58.7441 75.7448 48.7676 61.9995 48.7676C48.2548 48.7676 38.3307 58.7441 32.4701 72.0616C25.6331 87.5921 24.262 106.996 24.262 106.996C23.8699 112.732 28.1963 117.709 33.9201 118.101C39.6439 118.495 44.6101 114.159 45.0019 108.423C45.0019 108.423 46.0256 92.8903 51.4913 80.4693C52.7072 77.7054 54.139 75.0972 55.931 72.9951C57.5417 71.107 59.4337 69.6013 61.9971 69.6013Z" fill="url(#paint8_radial_2123_1137)"/>
<path fill-rule="evenodd" clip-rule="evenodd" d="M61.9971 69.6013C64.5629 69.6013 66.455 71.107 68.0681 72.9951C69.8606 75.0972 71.2919 77.7029 72.5078 80.4693C77.974 92.8873 78.9977 108.423 78.9977 108.423C79.3895 114.159 84.3556 118.495 90.0796 118.101C95.8031 117.709 100.129 112.73 99.7376 106.996C99.7376 106.996 98.364 87.5921 91.5296 72.0616C85.6685 58.7441 75.7448 48.7676 61.9995 48.7676C48.2548 48.7676 38.3307 58.7441 32.4701 72.0616C25.6331 87.5921 24.262 106.996 24.262 106.996C23.8699 112.732 28.1963 117.709 33.9201 118.101C39.6439 118.495 44.6101 114.159 45.0019 108.423C45.0019 108.423 46.0256 92.8903 51.4913 80.4693C52.7072 77.7054 54.139 75.0972 55.931 72.9951C57.5417 71.107 59.4337 69.6013 61.9971 69.6013Z" fill="url(#paint9_radial_2123_1137)"/>
<path fill-rule="evenodd" clip-rule="evenodd" d="M61.9971 69.6013C64.5629 69.6013 66.455 71.107 68.0681 72.9951C69.8606 75.0972 71.2919 77.7029 72.5078 80.4693C77.974 92.8873 78.9977 108.423 78.9977 108.423C79.3895 114.159 84.3556 118.495 90.0796 118.101C95.8031 117.709 100.129 112.73 99.7376 106.996C99.7376 106.996 98.364 87.5921 91.5296 72.0616C85.6685 58.7441 75.7448 48.7676 61.9995 48.7676C48.2548 48.7676 38.3307 58.7441 32.4701 72.0616C25.6331 87.5921 24.262 106.996 24.262 106.996C23.8699 112.732 28.1963 117.709 33.9201 118.101C39.6439 118.495 44.6101 114.159 45.0019 108.423C45.0019 108.423 46.0256 92.8903 51.4913 80.4693C52.7072 77.7054 54.139 75.0972 55.931 72.9951C57.5417 71.107 59.4337 69.6013 61.9971 69.6013Z" fill="url(#paint10_radial_2123_1137)"/>
<path fill-rule="evenodd" clip-rule="evenodd" d="M61.9971 69.6013C64.5629 69.6013 66.455 71.107 68.0681 72.9951C69.8606 75.0972 71.2919 77.7029 72.5078 80.4693C77.974 92.8873 78.9977 108.423 78.9977 108.423C79.3895 114.159 84.3556 118.495 90.0796 118.101C95.8031 117.709 100.129 112.73 99.7376 106.996C99.7376 106.996 98.364 87.5921 91.5296 72.0616C85.6685 58.7441 75.7448 48.7676 61.9995 48.7676C48.2548 48.7676 38.3307 58.7441 32.4701 72.0616C25.6331 87.5921 24.262 106.996 24.262 106.996C23.8699 112.732 28.1963 117.709 33.9201 118.101C39.6439 118.495 44.6101 114.159 45.0019 108.423C45.0019 108.423 46.0256 92.8903 51.4913 80.4693C52.7072 77.7054 54.139 75.0972 55.931 72.9951C57.5417 71.107 59.4337 69.6013 61.9971 69.6013Z" fill="url(#paint11_radial_2123_1137)"/>
<path fill-rule="evenodd" clip-rule="evenodd" d="M61.9971 69.6013C64.5629 69.6013 66.455 71.107 68.0681 72.9951C69.8606 75.0972 71.2919 77.7029 72.5078 80.4693C77.974 92.8873 78.9977 108.423 78.9977 108.423C79.3895 114.159 84.3556 118.495 90.0796 118.101C95.8031 117.709 100.129 112.73 99.7376 106.996C99.7376 106.996 98.364 87.5921 91.5296 72.0616C85.6685 58.7441 75.7448 48.7676 61.9995 48.7676C48.2548 48.7676 38.3307 58.7441 32.4701 72.0616C25.6331 87.5921 24.262 106.996 24.262 106.996C23.8699 112.732 28.1963 117.709 33.9201 118.101C39.6439 118.495 44.6101 114.159 45.0019 108.423C45.0019 108.423 46.0256 92.8903 51.4913 80.4693C52.7072 77.7054 54.139 75.0972 55.931 72.9951C57.5417 71.107 59.4337 69.6013 61.9971 69.6013Z" fill="url(#paint12_radial_2123_1137)"/>
<path fill-rule="evenodd" clip-rule="evenodd" d="M61.9971 69.6013C64.5629 69.6013 66.455 71.107 68.0681 72.9951C69.8606 75.0972 71.2919 77.7029 72.5078 80.4693C77.974 92.8873 78.9977 108.423 78.9977 108.423C79.3895 114.159 84.3556 118.495 90.0796 118.101C95.8031 117.709 100.129 112.73 99.7376 106.996C99.7376 106.996 98.364 87.5921 91.5296 72.0616C85.6685 58.7441 75.7448 48.7676 61.9995 48.7676C48.2548 48.7676 38.3307 58.7441 32.4701 72.0616C25.6331 87.5921 24.262 106.996 24.262 106.996C23.8699 112.732 28.1963 117.709 33.9201 118.101C39.6439 118.495 44.6101 114.159 45.0019 108.423C45.0019 108.423 46.0256 92.8903 51.4913 80.4693C52.7072 77.7054 54.139 75.0972 55.931 72.9951C57.5417 71.107 59.4337 69.6013 61.9971 69.6013Z" fill="url(#paint13_radial_2123_1137)"/>
<path fill-rule="evenodd" clip-rule="evenodd" d="M44.5159 104.489L21.9076 34.7616C20.1365 29.2948 14.2679 26.2963 8.80987 28.0737C3.35448 29.8512 0.362299 35.7321 2.13604 41.199L24.7445 110.926C26.5182 116.393 32.3868 119.391 37.8422 117.614C43.2975 115.836 46.2897 109.955 44.5159 104.489Z" fill="url(#paint14_linear_2123_1137)"/>
<path fill-rule="evenodd" clip-rule="evenodd" d="M44.5159 104.489L21.9076 34.7616C20.1365 29.2948 14.2679 26.2963 8.80987 28.0737C3.35448 29.8512 0.362299 35.7321 2.13604 41.199L24.7445 110.926C26.5182 116.393 32.3868 119.391 37.8422 117.614C43.2975 115.836 46.2897 109.955 44.5159 104.489Z" fill="url(#paint15_radial_2123_1137)"/>
<path fill-rule="evenodd" clip-rule="evenodd" d="M44.5159 104.489L21.9076 34.7616C20.1365 29.2948 14.2679 26.2963 8.80987 28.0737C3.35448 29.8512 0.362299 35.7321 2.13604 41.199L24.7445 110.926C26.5182 116.393 32.3868 119.391 37.8422 117.614C43.2975 115.836 46.2897 109.955 44.5159 104.489Z" fill="url(#paint16_linear_2123_1137)"/>
<path fill-rule="evenodd" clip-rule="evenodd" d="M44.5159 104.489L21.9076 34.7616C20.1365 29.2948 14.2679 26.2963 8.80987 28.0737C3.35448 29.8512 0.362299 35.7321 2.13604 41.199L24.7445 110.926C26.5182 116.393 32.3868 119.391 37.8422 117.614C43.2975 115.836 46.2897 109.955 44.5159 104.489Z" fill="url(#paint17_radial_2123_1137)"/>
<path fill-rule="evenodd" clip-rule="evenodd" d="M44.5159 104.489L21.9076 34.7616C20.1365 29.2948 14.2679 26.2963 8.80987 28.0737C3.35448 29.8512 0.362299 35.7321 2.13604 41.199L24.7445 110.926C26.5182 116.393 32.3868 119.391 37.8422 117.614C43.2975 115.836 46.2897 109.955 44.5159 104.489Z" fill="url(#paint18_radial_2123_1137)"/>
<defs>
<linearGradient id="paint0_linear_2123_1137" x1="133.956" y1="4.72091" x2="100.1" y2="114.194" gradientUnits="userSpaceOnUse">
<stop stop-color="#4A4EFA"/>
<stop offset="0.548576" stop-color="#E63CFE"/>
</linearGradient>
<linearGradient id="paint1_linear_2123_1137" x1="91.4355" y1="67.8285" x2="110.614" y2="74.0365" gradientUnits="userSpaceOnUse">
<stop offset="0.160046" stop-color="#4A4EFA"/>
<stop offset="0.946031" stop-color="#4A4EFA" stop-opacity="0"/>
</linearGradient>
<linearGradient id="paint2_linear_2123_1137" x1="94.3419" y1="58.6239" x2="106.392" y2="62.478" gradientUnits="userSpaceOnUse">
<stop stop-color="#39FBBB"/>
<stop offset="1" stop-color="#39FBBB" stop-opacity="0"/>
</linearGradient>
<radialGradient id="paint3_radial_2123_1137" cx="0" cy="0" r="1" gradientUnits="userSpaceOnUse" gradientTransform="translate(89.8889 84.1213) rotate(-64.1652) scale(62.8363 62.8358)">
<stop offset="0.832168" stop-color="#4A4EFA" stop-opacity="0"/>
<stop offset="1" stop-color="#4A4EFA" stop-opacity="0.75"/>
</radialGradient>
<radialGradient id="paint4_radial_2123_1137" cx="0" cy="0" r="1" gradientUnits="userSpaceOnUse" gradientTransform="translate(88.6706 79.9739) scale(14.0091 29.9603)">
<stop offset="0.169047" stop-color="#11417A"/>
<stop offset="0.926198" stop-color="#4069D4" stop-opacity="0"/>
</radialGradient>
<radialGradient id="paint5_radial_2123_1137" cx="0" cy="0" r="1" gradientUnits="userSpaceOnUse" gradientTransform="translate(104.886 118.126) rotate(-90) scale(46.3369 22.2075)">
<stop offset="0.34895" stop-color="#E63CFE"/>
<stop offset="1" stop-color="#E63CFE" stop-opacity="0"/>
</radialGradient>
<radialGradient id="paint6_radial_2123_1137" cx="0" cy="0" r="1" gradientUnits="userSpaceOnUse" gradientTransform="translate(58.4766 85.3392) rotate(-85.7675) scale(47.7407 42.39)">
<stop stop-color="#39FBBB" stop-opacity="0.5"/>
<stop offset="0.688731" stop-color="#39FBBB"/>
<stop offset="1" stop-color="#39FBBB" stop-opacity="0"/>
</radialGradient>
<radialGradient id="paint7_radial_2123_1137" cx="0" cy="0" r="1" gradientUnits="userSpaceOnUse" gradientTransform="translate(126.496 112.218) rotate(-122.629) scale(114.452 27.8442)">
<stop stop-color="#E63CFE"/>
<stop offset="1" stop-color="#E63CFE" stop-opacity="0"/>
</radialGradient>
<radialGradient id="paint8_radial_2123_1137" cx="0" cy="0" r="1" gradientUnits="userSpaceOnUse" gradientTransform="translate(60.3736 100.074) rotate(-85.0199) scale(51.5011 44.3011)">
<stop offset="0.556793" stop-color="#4A4EFA"/>
<stop offset="0.934777" stop-color="#4A4EFA" stop-opacity="0"/>
</radialGradient>
<radialGradient id="paint9_radial_2123_1137" cx="0" cy="0" r="1" gradientUnits="userSpaceOnUse" gradientTransform="translate(46.408 115.662) rotate(-68.6369) scale(53.7835 32.0964)">
<stop offset="0.61345" stop-color="#E63CFE"/>
<stop offset="1" stop-color="#E63CFE" stop-opacity="0"/>
</radialGradient>
<radialGradient id="paint10_radial_2123_1137" cx="0" cy="0" r="1" gradientUnits="userSpaceOnUse" gradientTransform="translate(98.4468 79.2386) rotate(176.233) scale(66.7787 168.818)">
<stop offset="0.813918" stop-color="#4A98D0" stop-opacity="0"/>
<stop offset="0.972647" stop-color="#11417A"/>
</radialGradient>
<radialGradient id="paint11_radial_2123_1137" cx="0" cy="0" r="1" gradientUnits="userSpaceOnUse" gradientTransform="translate(42.3976 118.126) rotate(-90) scale(47.8601 39.7104)">
<stop offset="0.457769" stop-color="#FFAE3C"/>
<stop offset="1" stop-color="#FFAE3C" stop-opacity="0"/>
</radialGradient>
<radialGradient id="paint12_radial_2123_1137" cx="0" cy="0" r="1" gradientUnits="userSpaceOnUse" gradientTransform="translate(100.432 118.126) rotate(-90) scale(43.1393 43.1388)">
<stop offset="0.191715" stop-color="#E63CFE"/>
<stop offset="1" stop-color="#E63CFE" stop-opacity="0"/>
</radialGradient>
<radialGradient id="paint13_radial_2123_1137" cx="0" cy="0" r="1" gradientUnits="userSpaceOnUse" gradientTransform="translate(75.1238 118.126) rotate(-90) scale(32.4621 15.42)">
<stop offset="0.173611" stop-color="#FFAE3C"/>
<stop offset="1" stop-color="#FFAE3C" stop-opacity="0"/>
</radialGradient>
<linearGradient id="paint14_linear_2123_1137" x1="-1.92722" y1="31.9135" x2="27.2634" y2="122.729" gradientUnits="userSpaceOnUse">
<stop offset="0.169527" stop-color="#E63CFE"/>
<stop offset="0.708644" stop-color="#FFAE3C"/>
</linearGradient>
<radialGradient id="paint15_radial_2123_1137" cx="0" cy="0" r="1" gradientUnits="userSpaceOnUse" gradientTransform="translate(21.9686 55.2416) rotate(161.042) scale(14.5638 71.1163)">
<stop offset="0.120383" stop-color="#4A4EFA"/>
<stop offset="1" stop-color="#4A4EFA" stop-opacity="0"/>
</radialGradient>
<linearGradient id="paint16_linear_2123_1137" x1="34.7773" y1="74.3593" x2="30.6895" y2="75.6974" gradientUnits="userSpaceOnUse">
<stop stop-color="#E63CFE" stop-opacity="0.33"/>
<stop offset="1" stop-color="#E63CFE" stop-opacity="0"/>
</linearGradient>
<radialGradient id="paint17_radial_2123_1137" cx="0" cy="0" r="1" gradientUnits="userSpaceOnUse" gradientTransform="translate(45.027 118.126) rotate(-90) scale(46.7917 51.1162)">
<stop offset="0.465389" stop-color="#FFAE3C"/>
<stop offset="0.92565" stop-color="#FFAE3C" stop-opacity="0"/>
</radialGradient>
<radialGradient id="paint18_radial_2123_1137" cx="0" cy="0" r="1" gradientUnits="userSpaceOnUse" gradientTransform="translate(45.027 118.126) rotate(-90) scale(102.382 102.381)">
<stop offset="0.843756" stop-color="#E63CFE" stop-opacity="0"/>
<stop offset="1" stop-color="#E63CFE"/>
</radialGradient>
</defs>
</svg>
