<svg aria-hidden viewBox="0 0 100 100" fill="none" xmlns="http://www.w3.org/2000/svg">
<path d="M79.5 67.7139C79.5 69.7831 77.8055 71.4998 75.667 71.5H24.333C22.1945 71.4998 20.5 69.7831 20.5 67.7139V35.5264L41.3086 51.0312C46.4607 54.8701 53.5393 54.8701 58.6914 51.0312L79.5 35.5254V67.7139Z"/>
<path d="M75.667 27.5C76.4601 27.5001 77.1916 27.737 77.7988 28.1396C77.6065 28.2337 77.4201 28.3469 77.2422 28.4795L79.5 31.5088L79.333 31.2861L77.2422 28.4795L54.5088 45.418C51.9219 47.3455 48.3901 47.4067 45.7441 45.5996L45.4912 45.418L22.7578 28.4795C22.5794 28.3465 22.3921 28.2339 22.1992 28.1396C22.8067 27.7365 23.5393 27.5001 24.333 27.5H75.667Z"/>
<path fill-rule="evenodd" clip-rule="evenodd" d="M81.5742 0C91.75 0.000120141 99.9998 8.28792 100 18.5117V81.4883C99.9998 91.7121 91.75 99.9999 81.5742 100H18.4258C8.24998 99.9999 0.000154703 91.7121 0 81.4883V18.5117C0.000149975 8.2879 8.248 9.32068e-05 18.4238 0H81.5742ZM24.333 20.5C18.3716 20.5002 13.5 25.308 13.5 31.2861V67.7139C13.5 73.692 18.3716 78.4998 24.333 78.5H75.667C81.6284 78.4998 86.5 73.692 86.5 67.7139V31.2861C86.5 25.308 81.6284 20.5002 75.667 20.5H24.333Z"/>
</svg>
