<svg aria-hidden viewBox="0 0 100 100" fill="none" xmlns="http://www.w3.org/2000/svg">
<path d="M85.2048 85.2062H70.3879V61.9999C70.3879 56.4661 70.2892 49.3425 62.6816 49.3425C54.9645 49.3425 53.7838 55.3717 53.7838 61.5971V85.2047H38.9668V37.4831H53.191V44.0047H53.3902C54.8137 41.5705 56.8707 39.568 59.3421 38.2105C61.8135 36.8531 64.6069 36.1914 67.4246 36.296C82.4421 36.296 85.211 46.175 85.211 59.027L85.2048 85.2062ZM22.2485 30.9598C20.5479 30.9601 18.8853 30.4561 17.4712 29.5114C16.057 28.5668 14.9547 27.2239 14.3037 25.6527C13.6526 24.0815 13.482 22.3525 13.8134 20.6843C14.1449 19.0162 14.9636 17.4838 16.1659 16.2809C17.3682 15.078 18.9001 14.2588 20.568 13.9266C22.2359 13.5945 23.9647 13.7645 25.536 14.4152C27.1073 15.0657 28.4503 16.1677 29.3954 17.5816C30.3405 18.9956 30.8451 20.6581 30.8454 22.359C30.8456 23.4882 30.6233 24.6065 30.1914 25.6499C29.7595 26.6933 29.1264 27.6413 28.3281 28.44C27.5298 29.2387 26.5819 29.8723 25.5388 30.3046C24.4957 30.737 23.3776 30.9596 22.2485 30.9598ZM29.6569 85.2062H14.8246V37.4831H29.6569V85.2062ZM82 8.73026e-06H18C11 -0.00680493 6.8837 4.14193 5.50004 5.49361C4.11638 6.84528 3.73423e-05 11.4941 3.73423e-05 17.8263L0 81.9993C0 89.4998 4.61639 93.6471 6 95.0002C7.38361 96.3532 11.5 100.001 18 100H82C89 100 93.111 95.8532 94.5 94.5002C95.8891 93.1471 100 88.9998 100 81.9993V17.9944C100 10.9939 95.8892 6.84511 94.5 5.49346C93.1109 4.14182 89 -0.00694478 82 8.73026e-06Z"/>
</svg>
