<svg viewBox="0 0 100 100" fill="none" xmlns="http://www.w3.org/2000/svg">
<path d="M85.2048 85.1999H70.3879V61.9953C70.3879 56.4619 70.2892 49.3388 62.6816 49.3388C54.9645 49.3388 53.7838 55.3676 53.7838 61.5925V85.1984H38.9668V37.4803H53.191V44.0014H53.3902C54.8137 41.5674 56.8707 39.5651 59.3421 38.2077C61.8135 36.8504 64.6069 36.1887 67.4246 36.2933C82.4421 36.2933 85.211 46.1716 85.211 59.0226L85.2048 85.1999ZM22.2485 30.9575C20.5479 30.9578 18.8853 30.4538 17.4712 29.5092C16.057 28.5647 14.9547 27.2219 14.3037 25.6508C13.6526 24.0797 13.482 22.3508 13.8134 20.6828C14.1449 19.0148 14.9636 17.4825 16.1659 16.2797C17.3682 15.0769 18.9001 14.2577 20.568 13.9256C22.2359 13.5935 23.9647 13.7635 25.536 14.4141C27.1073 15.0646 28.4503 16.1665 29.3954 17.5803C30.3405 18.9942 30.8451 20.6566 30.8454 22.3573C30.8456 23.4865 30.6233 24.6047 30.1914 25.648C29.7595 26.6913 29.1264 27.6393 28.3281 28.4379C27.5298 29.2365 26.5819 29.8701 25.5388 30.3024C24.4957 30.7347 23.3776 30.9573 22.2485 30.9575ZM29.6569 85.1999H14.8246V37.4803H29.6569V85.1999ZM82 8.72961e-06H18C11 -0.00680443 6.8837 4.14162 5.50004 5.4932C4.11638 6.84477 3.73423e-05 11.4932 3.73423e-05 17.825L0 81.9932C0 89.4932 4.61639 93.6402 6 94.9932C7.38361 96.3461 11.5 99.9932 18 99.9926H82C89 99.9926 93.111 95.8461 94.5 94.4932C95.8891 93.1402 100 88.9932 100 81.9932V17.9931C100 10.9931 95.8892 6.8446 94.5 5.49305C93.1109 4.14151 89 -0.00694427 82 8.72961e-06Z" fill="#131313"/>
</svg>
