<svg aria-hidden="true" viewBox="0 0 100 100" fill="none" xmlns="http://www.w3.org/2000/svg">
<path fill-rule="evenodd" clip-rule="evenodd" d="M81.5742 0C91.7501 0.000118595 99.9999 8.28801 100 18.5119V81.4881C100 91.712 91.7501 99.9998 81.5742 100H18.4258C8.2499 99.9998 2.35769e-05 91.712 0 81.4881V18.5119C6.40947e-05 8.28799 8.24795 9.28743e-05 18.4238 0H81.5742ZM71.834 27.9824C69.8698 28.017 66.8562 29.0663 52.3535 35.1033C47.2741 37.2177 37.1221 41.594 21.8984 48.232C19.4267 49.2158 18.1317 50.178 18.0137 51.1191C17.7873 52.9259 20.3868 53.4885 23.6572 54.5524C26.3234 55.4198 29.9097 56.4344 31.7744 56.4749C33.4658 56.5115 35.3543 55.8137 37.4385 54.3814C51.6624 44.7722 59.0048 39.9149 59.4658 39.8102C59.791 39.7364 60.2416 39.6442 60.5469 39.9157C60.8521 40.1873 60.8224 40.7013 60.79 40.8393C60.5314 41.9427 47.1702 54.1052 46.4004 54.9053C43.4621 57.9597 40.1197 59.829 45.2754 63.2294C49.7367 66.1716 52.3336 68.0485 56.9297 71.0637C59.8669 72.9907 62.1705 75.2758 65.2031 74.9966C66.5984 74.8678 68.0395 73.5546 68.7715 69.6387C70.5015 60.3827 73.9026 40.3269 74.6885 32.0627C74.7573 31.3387 74.6701 30.4121 74.6006 30.0055C74.531 29.5988 74.3856 29.0192 73.8574 28.5902C73.2318 28.0822 72.266 27.9748 71.834 27.9824Z"/>
</svg>
