<svg aria-hidden="true" viewBox="0 0 100 100" version="1.1" fill="none" xmlns="http://www.w3.org/2000/svg">
<path fill-rule="evenodd" clip-rule="evenodd" d="M81.5742 0.0400391C91.7501 0.0401576 99.9999 8.32142 100 18.5371V81.4629C100 91.6786 91.7501 99.9598 81.5742 99.96H18.4258C8.2499 99.9598 2.35769e-05 91.6786 0 81.4629V18.5371C6.40947e-05 8.3214 8.24795 0.0401319 18.4238 0.0400391H81.5742ZM71.834 28C69.8698 28.0346 66.8562 29.0831 52.3535 35.1152C47.2741 37.2279 37.1221 41.6007 21.8984 48.2334C19.4267 49.2164 18.1317 50.1779 18.0137 51.1182C17.7873 52.9236 20.3868 53.4857 23.6572 54.5488C26.3234 55.4155 29.9097 56.4293 31.7744 56.4697C33.4658 56.5063 35.3543 55.8091 37.4385 54.3779C51.6624 44.7764 59.0048 39.923 59.4658 39.8184C59.791 39.7446 60.2416 39.6525 60.5469 39.9238C60.8521 40.1952 60.8224 40.7088 60.79 40.8467C60.5314 41.9492 47.1702 54.1019 46.4004 54.9014C43.4621 57.9533 40.1197 59.8211 45.2754 63.2188C49.7367 66.1587 52.3336 68.0341 56.9297 71.0469C59.8669 72.9723 62.1705 75.2556 65.2031 74.9766C66.5984 74.8479 68.0395 73.5358 68.7715 69.623C70.5015 60.3744 73.9026 40.3347 74.6885 32.0771C74.7573 31.3537 74.6701 30.4278 74.6006 30.0215C74.531 29.6151 74.3856 29.036 73.8574 28.6074C73.2318 28.0998 72.266 27.9924 71.834 28Z" fill="#131313"/>
</svg>
