<svg aria-hidden="true" viewBox="0 0 100 100" fill="none" xmlns="http://www.w3.org/2000/svg">
<path d="M71.9326 38.5615C77.5685 38.5616 81.958 43.0638 81.958 49.6484C81.958 56.233 77.5685 60.7353 71.9326 60.7354C65.7106 60.7354 61.5944 55.9368 60.4424 54.0703C61.9144 42.2781 66.2287 38.5615 71.9326 38.5615Z" fill="#131313"/>
<path fill-rule="evenodd" clip-rule="evenodd" d="M81.5742 0.0400391C91.7501 0.0401576 99.9999 8.32142 100 18.5371V81.4629C100 91.6786 91.7501 99.9598 81.5742 99.96H18.4258C8.2499 99.9598 2.35769e-05 91.6786 0 81.4629V18.5371C6.40947e-05 8.3214 8.24795 0.0401319 18.4238 0.0400391H81.5742ZM71.9326 31.3232C61.7906 31.3232 56.1064 37.9318 54.4824 44.7363C52.6344 41.2711 51.2741 36.6347 50.2021 32.3262H36.1846V49.7598C36.1846 56.0947 33.308 60.7656 27.666 60.7656C22.0244 60.7654 18.7921 56.0952 18.792 49.7627L18.8525 32.3262H10.7725V49.7598C10.7725 54.8497 12.4248 59.4644 15.4248 62.7578C18.5207 66.1509 22.7523 67.9433 27.6621 67.9434C37.418 67.9434 44.2245 60.4678 44.2246 49.7666V38.0518C45.2526 41.9067 47.6647 49.3206 52.3066 55.8213L47.9707 80.4893H56.1865L59.0488 63C59.9887 63.7772 60.9845 64.481 62.0283 65.1084C64.7669 66.8475 67.9228 67.8197 71.166 67.9238H71.1826C71.4246 67.9238 71.671 67.9375 71.9209 67.9375C81.9787 67.9373 89.9883 60.1555 89.9883 49.666C89.9901 39.1706 81.9885 31.3233 71.9326 31.3232Z" fill="#131313"/>
</svg>
