<svg aria-hidden="true" viewBox="0 0 100 100" fill="none" xmlns="http://www.w3.org/2000/svg">
<path d="M71.9326 38.5524C77.5685 38.5524 81.958 43.0582 81.958 49.6482C81.958 56.238 77.5685 60.7439 71.9326 60.744C65.7106 60.744 61.5944 55.9416 60.4424 54.0736C61.9144 42.2719 66.2287 38.5524 71.9326 38.5524Z"/>
<path fill-rule="evenodd" clip-rule="evenodd" d="M81.5742 0C91.7501 0.000118653 99.9999 8.28801 100 18.5119V81.4881C100 91.712 91.7501 99.9999 81.5742 100H18.4258C8.2499 99.9999 2.35769e-05 91.712 0 81.4881V18.5119C6.40947e-05 8.288 8.24795 9.29422e-05 18.4238 0H81.5742ZM71.9326 31.3083C61.7906 31.3083 56.1064 37.9221 54.4824 44.7321C52.6344 41.2641 51.2741 36.624 50.2021 32.312H36.1846V49.7596C36.1846 56.0996 33.308 60.7743 27.666 60.7743C22.0244 60.774 18.7921 56.1001 18.792 49.7625L18.8525 32.312H10.7725V49.7596C10.7725 54.8536 12.4248 59.472 15.4248 62.768C18.5207 66.1639 22.7523 67.9577 27.6621 67.9577C37.418 67.9577 44.2245 60.4762 44.2246 49.7664V38.0422C45.2526 41.9002 47.6647 49.32 52.3066 55.826L47.9707 80.5137H56.1865L59.0488 63.0104C59.9887 63.7883 60.9845 64.4926 62.0283 65.1205C64.7669 66.861 67.9228 67.8339 71.166 67.9382H71.1826C71.4246 67.9382 71.671 67.9519 71.9209 67.9519C81.9787 67.9517 89.9883 60.1636 89.9883 49.6657C89.9901 39.1619 81.9885 31.3084 71.9326 31.3083Z"/>
</svg>
