<svg viewBox="0 0 108 150" fill="none" xmlns="http://www.w3.org/2000/svg" aria-label="Anime.js">
<path d="M108 75C108 104.823 83.8234 129 54 129C24.1766 129 0 104.823 0 75C0 45.1766 24.1766 21 54 21C83.8234 21 108 45.1766 108 75Z" fill="#111111"/>
<path d="M39.7634 107.594C32.9304 107.594 27.5395 107.106 23.5906 106.129C19.6417 105.153 16.7798 103.556 15.005 101.337C13.2303 99.119 12.3429 96.1018 12.3429 92.286C12.3429 90.6 12.476 88.9139 12.7422 87.2279L13.1415 84.2995C13.8514 79.3301 15.2269 75.5587 17.2679 72.9852C19.3089 70.4118 22.5035 68.5926 26.8518 67.5277C31.2 66.4629 37.4118 65.9304 45.4871 65.9304H48.1492C54.4497 65.9304 59.3748 66.3963 62.9244 67.3281C66.474 68.2598 69.0474 69.7906 70.6447 71.9203H71.044L71.7096 65.6642C71.8871 64.0669 71.9758 63.0464 71.9758 62.6027C71.9758 60.4729 71.5321 58.92 70.6447 57.9439C69.7573 56.9677 68.404 56.3244 66.5849 56.0138C64.7657 55.7032 62.0813 55.5479 58.5318 55.5479H55.8696C51.6988 55.5479 48.5264 55.7476 46.3523 56.1469C44.1782 56.5462 42.6696 57.1674 41.8266 58.0104C40.9835 58.8534 40.4289 60.0292 40.1627 61.5378L40.0296 61.9371H17.9334L18.1997 59.9405C18.9096 54.8824 20.5291 51.0666 23.0582 48.4931C25.5872 45.9197 29.5805 44.1227 35.038 43.1022C40.4955 42.0817 48.3267 41.5714 58.5318 41.5714H61.7264C70.1566 41.5714 76.7012 42.1261 81.36 43.2353C86.0188 44.3445 89.4353 46.3634 91.6094 49.2918C93.7835 52.2202 94.8706 56.524 94.8706 62.2034C94.8706 64.5106 94.56 68.0158 93.9388 72.719L89.1469 106.529H66.119L67.317 99.3408H67.0508C65.1872 101.471 63.3681 103.112 61.5933 104.266C59.8185 105.42 57.4669 106.263 54.5385 106.795C51.6101 107.327 47.6168 107.594 42.5587 107.594H39.7634ZM52.1425 93.3509C56.9345 93.3509 60.484 93.1513 62.7913 92.7519C65.0985 92.3526 66.6958 91.6871 67.5832 90.7553C68.4706 89.8235 69.0474 88.4259 69.3136 86.5624L69.5798 85.4975C69.6686 85.0538 69.7129 84.4326 69.7129 83.6339C69.7129 82.3916 69.3136 81.4376 68.515 80.7721C67.7163 80.1066 66.2299 79.6407 64.0558 79.3745C61.8817 79.1082 58.6649 78.9751 54.4054 78.9751H52.9412C48.1492 78.9751 44.5775 79.197 42.2259 79.6407C39.8743 80.0844 38.2548 80.7721 37.3674 81.7039C36.48 82.6356 35.9032 84.0333 35.637 85.8968L35.5039 86.9617L35.3708 88.2928C35.3708 89.6239 35.8588 90.6666 36.835 91.4208C37.8111 92.1751 39.3862 92.6854 41.5603 92.9516C43.7345 93.2178 46.8182 93.3509 50.8114 93.3509H52.1425Z" fill="white"/>
<path d="M77.1429 57.6171L79.8051 39.5143H103.232L100.703 57.6171H77.1429Z" fill="#222222"/>
<path d="M81.2571 54.5314L83.9194 36.4286H107.347L104.817 54.5314H81.2571Z" fill="#FF4B4B"/>
</svg>
