<svg viewBox="0 0 157 150" fill="none" xmlns="http://www.w3.org/2000/svg" aria-label="Cloudflare">
<path d="M108 106.182C108.967 102.87 108.599 99.8326 106.989 97.5754C105.517 95.5046 103.03 94.3073 100.042 94.1699L43.3972 93.4338C43.0293 93.4338 42.7103 93.2474 42.5239 92.9726C42.3375 92.6978 42.2933 92.3346 42.3865 91.9617C42.573 91.4072 43.1225 90.995 43.7211 90.9509L100.871 90.2148C107.642 89.8909 115.001 84.4147 117.572 77.7018L120.84 69.1881C120.984 68.8386 121.018 68.4535 120.938 68.084C117.258 51.4246 102.392 39 84.6307 39C68.2433 39 54.3582 49.5845 49.3831 64.2713C46.1596 61.8766 42.0234 60.591 37.6469 61.0032C29.777 61.7883 23.4183 68.0889 22.6922 75.9598C22.5015 77.9173 22.6408 79.8928 23.1043 81.8041C16.9132 81.9718 11.0325 84.5519 6.71634 88.9942C2.40017 93.4365 -0.00991588 99.3895 3.06653e-05 105.584C3.06653e-05 106.732 0.0981589 107.89 0.230632 109.033C0.32876 109.588 0.785057 110 1.33457 110H105.88C106.181 109.994 106.472 109.893 106.712 109.712C106.952 109.53 107.128 109.277 107.215 108.989L108 106.182Z" fill="#F38020"/>
<path d="M126.03 69.7772L124.46 69.8263C124.092 69.8263 123.773 70.1011 123.626 70.4642L121.418 78.1486C120.452 81.4609 120.82 84.4984 122.429 86.7556C123.901 88.8264 126.388 90.0237 129.376 90.1611L141.432 90.8971C141.8 90.8971 142.118 91.0836 142.305 91.3584C142.491 91.6332 142.535 92.0454 142.442 92.3692C142.256 92.9237 141.706 93.3359 141.108 93.3801L128.547 94.1162C121.737 94.44 114.417 99.9163 111.846 106.629L110.923 108.975C110.737 109.436 111.061 109.897 111.561 109.897H154.723C154.973 109.901 155.217 109.821 155.417 109.671C155.616 109.521 155.761 109.309 155.827 109.068C156.592 106.346 156.986 103.534 157 100.706C156.976 92.5034 153.704 84.6438 147.9 78.8481C142.096 73.0523 134.232 69.7876 126.03 69.7772Z" fill="#FAAE40"/>
</svg>
