<svg viewBox="0 0 86 150" fill="none" xmlns="http://www.w3.org/2000/svg">
<path d="M30.756 24.8449V30.0155H17.4827V14H30.756V19.6666H23.1714V24.8449H30.756ZM44.4006 19.6666H49.7031V14H36.4284C36.4284 14 36.4284 16.8443 36.4284 19.6666C38.2043 21.4356 39.1304 22.2824 41.6989 24.8409C40.1974 24.8409 36.4284 24.8459 36.4284 24.8459V30.0155H49.7031V24.8449L44.4006 19.6666ZM63.2148 19.6666H68.5169V14H55.2426C55.2426 14 55.2426 16.8443 55.2426 19.6666C57.0181 21.4356 57.9446 22.2824 60.5128 24.8409C59.0123 24.8409 55.2426 24.8459 55.2426 24.8459V30.0155H68.5171V24.8449L63.2148 19.6666ZM86 37.627L77.9366 124.63L42.9998 134L8.06225 124.63L0 37.627H86ZM69.7524 55.3176H42.9682H15.7105L17.014 65.8239H42.9682H44.4261L42.9682 66.4283L17.9627 76.8026L18.792 87.072L42.9682 87.1502L55.9258 87.1913L55.0957 100.885L42.9682 104.286V104.275L42.8687 104.303L31.1556 101.357L30.4448 92.8574H30.4061H19.5415H19.5033L20.9254 109.267L42.9682 115.76V115.748L43.0078 115.76L64.9327 109.385L67.7775 76.8029H42.9682H42.9069L42.9682 76.7766L68.6854 65.8241L69.7524 55.3176Z" fill="currentColor"/>
</svg>
