<svg viewBox="0 0 215 150" fill="none" xmlns="http://www.w3.org/2000/svg">
<path d="M62.8482 72.4338V72.4676L60.0558 84.5966C59.9052 85.283 59.2194 85.7874 58.4298 85.7874H55.0555C54.9342 85.7878 54.8163 85.8271 54.719 85.8997C54.6217 85.9722 54.5503 86.0742 54.5152 86.1904C51.4034 96.7568 47.1901 104.021 41.6261 108.381C36.8934 112.094 31.0593 113.823 23.264 113.823C16.261 113.823 11.5386 111.569 7.53315 107.12C2.24192 101.234 0.0547714 91.6088 1.37953 80.0076C3.76669 58.2274 15.0531 36.2496 36.7843 36.2496C43.3951 36.1898 48.585 38.2308 52.1956 42.3076C56.014 46.6158 57.9518 53.108 57.9622 61.6022C57.9527 61.9746 57.7984 62.3287 57.532 62.589C57.2657 62.8493 56.9084 62.9952 56.5361 62.9958H40.6131C40.3341 62.9872 40.069 62.8719 39.8723 62.6736C39.6756 62.4753 39.5624 62.2091 39.5559 61.9298C39.426 56.0564 37.6856 53.1938 34.2257 53.1938C28.1214 53.1938 24.5212 61.4878 22.612 66.0872C19.9443 72.5092 18.5858 79.4824 18.8533 86.4296C18.9806 89.664 19.5001 94.214 22.5678 96.0964C25.2875 97.7682 29.1682 96.6606 31.519 94.8094C33.8672 92.9608 35.7583 89.7602 36.5531 86.8404C36.6648 86.4348 36.6726 86.1202 36.5661 85.9772C36.4544 85.8342 36.1453 85.8004 35.9089 85.8004H31.8203C31.6039 85.8011 31.39 85.7544 31.1935 85.6637C30.997 85.573 30.8226 85.4404 30.6826 85.2752C30.5752 85.1462 30.4989 84.9943 30.4597 84.831C30.4205 84.6678 30.4195 84.4977 30.4566 84.334L33.2516 72.1816C33.3893 71.5576 33.9529 71.0896 34.6465 71.0038V70.9752H61.4793C61.5416 70.9752 61.6066 70.9752 61.6663 70.9882C62.3625 71.0766 62.8534 71.7266 62.8404 72.4338H62.8482Z" fill="#0AE448"/>
<path d="M109.043 58.49C109.031 58.8602 108.876 59.2113 108.611 59.469C108.345 59.7267 107.989 59.8708 107.619 59.8706H92.9535C91.9924 59.8706 91.1898 59.0906 91.1898 58.1416C91.1898 53.8568 89.7092 51.7716 86.6804 51.7716C83.6516 51.7716 81.6983 53.6358 81.6411 56.8884C81.5762 60.5154 83.6257 63.8096 89.4598 69.4724C97.1408 76.6848 100.219 83.0756 100.071 91.5204C99.8293 105.173 90.5534 114 76.4382 114C69.23 114 63.7232 112.068 60.0606 108.262C56.3435 104.398 54.6395 98.725 54.9954 91.4008C55.0075 91.0306 55.1632 90.6798 55.4294 90.4225C55.6956 90.1653 56.0514 90.0219 56.4214 90.0228H71.5912C71.8027 90.0265 72.0107 90.0772 72.2003 90.1711C72.3899 90.2651 72.5562 90.4 72.6873 90.5662C72.802 90.7032 72.8859 90.8632 72.9334 91.0355C72.9809 91.2077 72.9909 91.3882 72.9627 91.5646C72.7938 94.2062 73.2536 96.1796 74.2926 97.2716C74.9576 97.9788 75.8849 98.3376 77.0409 98.3376C79.8436 98.3376 81.4853 96.3538 81.5476 92.9036C81.5996 89.9188 80.6567 87.3006 75.5187 82.0096C68.8819 75.52 62.9309 68.8146 63.1153 58.2716C63.2244 52.159 65.6506 46.5664 69.9495 42.526C74.4952 38.2568 80.7112 36 87.9272 36C95.1562 36.052 100.634 38.1138 104.211 42.1334C107.599 45.945 109.23 51.4466 109.048 58.4874L109.043 58.49Z" fill="#0AE448"/>
<path d="M154.506 111.431L154.602 38.808C154.604 38.6261 154.571 38.4455 154.503 38.2768C154.435 38.1081 154.334 37.9547 154.206 37.8256C154.078 37.6965 153.926 37.5943 153.758 37.525C153.589 37.4557 153.409 37.4208 153.228 37.4222H130.53C129.766 37.4222 129.431 38.0774 129.213 38.5142L96.3488 110.989V111.002L96.3358 111.018C95.9721 111.91 96.6631 112.864 97.6268 112.864H113.493C114.35 112.864 114.916 112.604 115.197 112.063L118.348 104.484C118.735 103.475 118.807 103.382 119.909 103.382H135.068C136.123 103.382 136.146 103.402 136.128 104.435L135.788 111.481C135.785 111.662 135.819 111.843 135.887 112.011C135.955 112.179 136.056 112.332 136.184 112.461C136.312 112.59 136.465 112.692 136.632 112.761C136.8 112.83 136.98 112.865 137.162 112.864H153.189C153.387 112.866 153.584 112.825 153.765 112.744C153.945 112.662 154.106 112.541 154.235 112.391C154.347 112.26 154.429 112.106 154.476 111.941C154.522 111.775 154.532 111.601 154.506 111.431ZM126.426 87.1836C126.278 87.1836 126.161 87.181 126.067 87.1706C126.012 87.1663 125.958 87.1499 125.91 87.1225C125.861 87.0951 125.819 87.0573 125.787 87.0119C125.755 86.9665 125.733 86.9145 125.723 86.8597C125.713 86.8049 125.716 86.7486 125.73 86.6948C125.761 86.5882 125.805 86.4478 125.867 86.271L137.237 58.1208C137.336 57.8426 137.46 57.5696 137.59 57.3044C137.775 56.9274 137.998 56.9014 138.068 57.1822C138.128 57.4162 136.764 86.089 136.764 86.089C136.658 87.1628 136.608 87.207 135.551 87.2954L126.436 87.1888H126.416L126.426 87.1836Z" fill="#0AE448"/>
<path d="M186.842 37.4222H174.792C174.156 37.4222 173.441 37.7602 173.273 38.5194L156.505 111.395C156.468 111.56 156.47 111.731 156.509 111.895C156.549 112.059 156.626 112.212 156.734 112.341C156.874 112.506 157.048 112.638 157.244 112.729C157.44 112.82 157.653 112.867 157.869 112.866H172.93C173.738 112.866 174.293 112.469 174.444 111.78C174.444 111.78 176.27 103.543 176.273 103.517C176.403 102.875 176.179 102.375 175.603 102.074C175.33 101.933 175.06 101.793 174.792 101.65L172.182 100.293L169.584 98.9356L168.579 98.413C168.497 98.3718 168.429 98.3085 168.383 98.2303C168.336 98.1521 168.312 98.0622 168.314 97.971C168.317 97.8365 168.373 97.7086 168.469 97.6144C168.565 97.5203 168.694 97.4672 168.828 97.4666L177.083 97.503C179.551 97.516 182.021 97.3418 184.45 96.8946C201.542 93.7356 212.893 80.0336 213.22 61.389C213.498 45.477 204.625 37.4144 186.855 37.4144L186.842 37.4222ZM182.741 80.7902H182.419C181.696 80.7902 181.567 80.7122 181.543 80.6862C181.533 80.668 186.305 59.6964 186.307 59.6678C186.429 59.062 186.424 58.7136 186.05 58.5082C185.572 58.243 178.605 54.5666 178.605 54.5666C178.524 54.5242 178.456 54.4598 178.41 54.3807C178.364 54.3016 178.34 54.2111 178.343 54.1194C178.346 53.9858 178.402 53.8589 178.497 53.7656C178.593 53.6724 178.721 53.6202 178.855 53.6202H189.871C193.3 53.7242 195.212 56.7948 195.121 62.0364C194.962 71.1156 190.65 80.4704 182.741 80.7928V80.7902Z" fill="#0AE448"/>
</svg>
