<svg viewBox="0 0 85 150" fill="none" xmlns="http://www.w3.org/2000/svg">
<path d="M7.90821 14H13.3159V19.3439H18.2627V14H23.6709V30.1822H18.2632V24.7632H13.3164V30.1822H7.90868V14H7.90821ZM30.782 19.3664H26.0216V14H40.9528V19.3664H36.1901V30.1822H30.7824V19.3664H30.782ZM43.3224 14H48.962L52.4301 19.6861L55.8954 14H61.5358V30.1822H56.1501V22.1617L52.4299 27.9151H52.3371L48.6143 22.1617V30.1822H43.3224V14ZM64.2276 14H69.6367V24.8336H77.2418V30.1822H64.2276V14ZM0 37.5833L7.7354 124.362L42.4478 134L77.2564 124.349L85 37.583L0 37.5833ZM68.8645 58.1768L68.3801 63.5726L68.1674 65.9651H68.1324H42.5001H42.463H27.4468L28.4193 76.8631H42.463H42.5001H64.3309H67.1987L66.939 79.7215L64.4385 107.742L64.2783 109.539L42.5001 115.576V115.578L42.4513 115.592L20.6536 109.539L19.1624 92.8283H24.086H29.8447L30.6023 101.317L42.4532 104.518L42.463 104.515V104.514L54.3319 101.311L55.5662 87.507H42.5001H42.463H18.6872L16.0719 58.1768L15.8171 55.322H42.463H42.5001H69.1192L68.8645 58.1768Z" fill="currentColor"/>
</svg>
