<svg viewBox="0 0 105 150" fill="none" xmlns="http://www.w3.org/2000/svg" aria-label="JavaScript">
<path d="M93.75 23H11.25C5.03906 23 0 28.039 0 34.25V116.75C0 122.961 5.03906 128 11.25 128H93.75C99.9609 128 105 122.961 105 116.75V34.25C105 28.039 99.9609 23 93.75 23ZM57.1406 104.891C57.1406 115.109 51.1406 119.773 42.3984 119.773C34.5 119.773 29.9297 115.695 27.5859 110.75L35.625 105.898C37.1719 108.641 38.5781 110.961 41.9766 110.961C45.2109 110.961 47.2734 109.695 47.2734 104.75V71.2109H57.1406V104.891ZM80.4844 119.773C71.3203 119.773 65.3906 115.414 62.5078 109.695L70.5469 105.055C72.6562 108.5 75.4219 111.055 80.2734 111.055C84.3516 111.055 86.9766 109.016 86.9766 106.18C86.9766 102.805 84.3047 101.609 79.7812 99.6172L77.3203 98.5625C70.1953 95.5391 65.4844 91.7187 65.4844 83.6797C65.4844 76.2734 71.1328 70.6485 79.9219 70.6485C86.2031 70.6485 90.7031 72.8281 93.9375 78.5468L86.25 83.4687C84.5625 80.4453 82.7344 79.25 79.8984 79.25C77.0156 79.25 75.1875 81.0781 75.1875 83.4687C75.1875 86.4218 77.0156 87.6172 81.2578 89.4688L83.7187 90.5234C92.1094 94.1094 96.8203 97.7891 96.8203 106.039C96.8203 114.898 89.8359 119.773 80.4844 119.773Z" fill="currentColor"/>
</svg>
