<svg viewBox="0 0 90 150" fill="none" xmlns="http://www.w3.org/2000/svg" aria-label="Replo">
<path d="M0 120H44.9995V75.0009C39.0902 74.9989 33.2385 76.1613 27.7796 78.4225C22.3208 80.683 17.362 83.9981 13.1875 88.1767C4.74882 96.6223 0.00642595 108.066 0 120Z" fill="currentColor"/>
<path d="M0 74.999V30H44.9995C44.9829 41.9406 40.2413 53.3885 31.8121 61.8387C27.6419 66.0277 22.6832 69.348 17.2227 71.6072C11.7622 73.8658 5.90849 75.0185 0 74.999Z" fill="currentColor"/>
<path d="M45 74.999H89.9997V30C78.0713 30 66.6315 34.7397 58.1937 43.1775C49.7558 51.6154 45.0102 63.0609 45 74.999Z" fill="currentColor"/>
</svg>
