<svg viewBox="0 0 150 150" fill="none" xmlns="http://www.w3.org/2000/svg">
<path fill-rule="evenodd" clip-rule="evenodd" d="M75 30C55 30 42.5 40 37.5 60C45 50 53.75 46.25 63.75 48.75C69.4556 50.175 73.5333 54.3167 78.0472 58.8972C85.4 66.3611 93.9111 75 112.5 75C132.5 75 145 65 150 45C142.5 55 133.75 58.75 123.75 56.25C118.044 54.825 113.967 50.6833 109.453 46.1028C102.1 38.6389 93.5889 30 75 30ZM37.5 75C17.5 75 5 85 0 105C7.5 95 16.25 91.25 26.25 93.75C31.9556 95.1778 36.0333 99.3167 40.5472 103.897C47.9 111.361 56.4111 120 75 120C95 120 107.5 110 112.5 90C105 100 96.25 103.75 86.25 101.25C80.5444 99.825 76.4667 95.6833 71.9528 91.1028C64.6 83.6389 56.0889 75 37.5 75Z" fill="#38BDF8"/>
</svg>
