<svg viewBox="0 0 140 150" fill="none" xmlns="http://www.w3.org/2000/svg">
<path fill-rule="evenodd" clip-rule="evenodd" d="M113.195 118.658L139.407 37.8148C141.464 31.4764 137.995 24.6549 131.67 22.5971C125.344 20.5393 118.538 24.0128 116.484 30.3512L90.2713 111.191C88.2147 117.529 91.6838 124.351 98.009 126.409C104.334 128.469 111.142 124.996 113.195 118.658Z" fill="url(#paint0_linear_2175_990)"/>
<path fill-rule="evenodd" clip-rule="evenodd" d="M113.195 118.658L139.407 37.8148C141.464 31.4764 137.995 24.6549 131.67 22.5971C125.344 20.5393 118.538 24.0128 116.484 30.3512L90.2713 111.191C88.2147 117.529 91.6838 124.351 98.009 126.409C104.334 128.469 111.142 124.996 113.195 118.658Z" fill="url(#paint1_linear_2175_990)"/>
<path fill-rule="evenodd" clip-rule="evenodd" d="M113.195 118.658L139.407 37.8148C141.464 31.4764 137.995 24.6549 131.67 22.5971C125.344 20.5393 118.538 24.0128 116.484 30.3512L90.2713 111.191C88.2147 117.529 91.6838 124.351 98.009 126.409C104.334 128.469 111.142 124.996 113.195 118.658Z" fill="url(#paint2_linear_2175_990)" fill-opacity="0.8"/>
<path fill-rule="evenodd" clip-rule="evenodd" d="M113.195 118.658L139.407 37.8148C141.464 31.4764 137.995 24.6549 131.67 22.5971C125.344 20.5393 118.538 24.0128 116.484 30.3512L90.2713 111.191C88.2147 117.529 91.6838 124.351 98.009 126.409C104.334 128.469 111.142 124.996 113.195 118.658Z" fill="url(#paint3_radial_2175_990)"/>
<path fill-rule="evenodd" clip-rule="evenodd" d="M113.195 118.658L139.407 37.8148C141.464 31.4764 137.995 24.6549 131.67 22.5971C125.344 20.5393 118.538 24.0128 116.484 30.3512L90.2713 111.191C88.2147 117.529 91.6838 124.351 98.009 126.409C104.334 128.469 111.142 124.996 113.195 118.658Z" fill="url(#paint4_radial_2175_990)"/>
<path fill-rule="evenodd" clip-rule="evenodd" d="M113.195 118.658L139.407 37.8148C141.464 31.4764 137.995 24.6549 131.67 22.5971C125.344 20.5393 118.538 24.0128 116.484 30.3512L90.2713 111.191C88.2147 117.529 91.6838 124.351 98.009 126.409C104.334 128.469 111.142 124.996 113.195 118.658Z" fill="url(#paint5_radial_2175_990)"/>
<path fill-rule="evenodd" clip-rule="evenodd" d="M69.9969 70.7419C72.9717 70.7419 75.1654 72.4876 77.0357 74.6768C79.114 77.1139 80.7735 80.1351 82.1832 83.3425C88.5209 97.7403 89.7078 115.753 89.7078 115.753C90.162 122.403 95.9198 127.43 102.556 126.974C109.192 126.519 114.208 120.746 113.754 114.099C113.754 114.099 112.162 91.6008 104.237 73.5945C97.4421 58.1539 85.9363 46.5868 69.9997 46.5868C54.0637 46.5868 42.5575 58.1539 35.7626 73.5945C27.8356 91.6008 26.2459 114.099 26.2459 114.099C25.7913 120.749 30.8074 126.519 37.4438 126.974C44.0801 127.43 49.838 122.403 50.2922 115.753C50.2922 115.753 51.4791 97.7437 57.8163 83.3425C59.226 80.1379 60.886 77.1139 62.9637 74.6768C64.8311 72.4876 67.0248 70.7419 69.9969 70.7419Z" fill="#E63CFE"/>
<path fill-rule="evenodd" clip-rule="evenodd" d="M69.9969 70.7419C72.9717 70.7419 75.1654 72.4876 77.0357 74.6768C79.114 77.1139 80.7735 80.1351 82.1832 83.3425C88.5209 97.7403 89.7078 115.753 89.7078 115.753C90.162 122.403 95.9198 127.43 102.556 126.974C109.192 126.519 114.208 120.746 113.754 114.099C113.754 114.099 112.162 91.6008 104.237 73.5945C97.4421 58.1539 85.9363 46.5868 69.9997 46.5868C54.0637 46.5868 42.5575 58.1539 35.7626 73.5945C27.8356 91.6008 26.2459 114.099 26.2459 114.099C25.7913 120.749 30.8074 126.519 37.4438 126.974C44.0801 127.43 49.838 122.403 50.2922 115.753C50.2922 115.753 51.4791 97.7437 57.8163 83.3425C59.226 80.1379 60.886 77.1139 62.9637 74.6768C64.8311 72.4876 67.0248 70.7419 69.9969 70.7419Z" fill="url(#paint6_radial_2175_990)"/>
<path fill-rule="evenodd" clip-rule="evenodd" d="M69.9969 70.7419C72.9717 70.7419 75.1654 72.4876 77.0357 74.6768C79.114 77.1139 80.7735 80.1351 82.1832 83.3425C88.5209 97.7403 89.7078 115.753 89.7078 115.753C90.162 122.403 95.9198 127.43 102.556 126.974C109.192 126.519 114.208 120.746 113.754 114.099C113.754 114.099 112.162 91.6008 104.237 73.5945C97.4421 58.1539 85.9363 46.5868 69.9997 46.5868C54.0637 46.5868 42.5575 58.1539 35.7626 73.5945C27.8356 91.6008 26.2459 114.099 26.2459 114.099C25.7913 120.749 30.8074 126.519 37.4438 126.974C44.0801 127.43 49.838 122.403 50.2922 115.753C50.2922 115.753 51.4791 97.7437 57.8163 83.3425C59.226 80.1379 60.886 77.1139 62.9637 74.6768C64.8311 72.4876 67.0248 70.7419 69.9969 70.7419Z" fill="url(#paint7_radial_2175_990)"/>
<path fill-rule="evenodd" clip-rule="evenodd" d="M69.9969 70.7419C72.9717 70.7419 75.1654 72.4876 77.0357 74.6768C79.114 77.1139 80.7735 80.1351 82.1832 83.3425C88.5209 97.7403 89.7078 115.753 89.7078 115.753C90.162 122.403 95.9198 127.43 102.556 126.974C109.192 126.519 114.208 120.746 113.754 114.099C113.754 114.099 112.162 91.6008 104.237 73.5945C97.4421 58.1539 85.9363 46.5868 69.9997 46.5868C54.0637 46.5868 42.5575 58.1539 35.7626 73.5945C27.8356 91.6008 26.2459 114.099 26.2459 114.099C25.7913 120.749 30.8074 126.519 37.4438 126.974C44.0801 127.43 49.838 122.403 50.2922 115.753C50.2922 115.753 51.4791 97.7437 57.8163 83.3425C59.226 80.1379 60.886 77.1139 62.9637 74.6768C64.8311 72.4876 67.0248 70.7419 69.9969 70.7419Z" fill="url(#paint8_radial_2175_990)"/>
<path fill-rule="evenodd" clip-rule="evenodd" d="M69.9969 70.7419C72.9717 70.7419 75.1654 72.4876 77.0357 74.6768C79.114 77.1139 80.7735 80.1351 82.1832 83.3425C88.5209 97.7403 89.7078 115.753 89.7078 115.753C90.162 122.403 95.9198 127.43 102.556 126.974C109.192 126.519 114.208 120.746 113.754 114.099C113.754 114.099 112.162 91.6008 104.237 73.5945C97.4421 58.1539 85.9363 46.5868 69.9997 46.5868C54.0637 46.5868 42.5575 58.1539 35.7626 73.5945C27.8356 91.6008 26.2459 114.099 26.2459 114.099C25.7913 120.749 30.8074 126.519 37.4438 126.974C44.0801 127.43 49.838 122.403 50.2922 115.753C50.2922 115.753 51.4791 97.7437 57.8163 83.3425C59.226 80.1379 60.886 77.1139 62.9637 74.6768C64.8311 72.4876 67.0248 70.7419 69.9969 70.7419Z" fill="url(#paint9_radial_2175_990)"/>
<path fill-rule="evenodd" clip-rule="evenodd" d="M69.9969 70.7419C72.9717 70.7419 75.1654 72.4876 77.0357 74.6768C79.114 77.1139 80.7735 80.1351 82.1832 83.3425C88.5209 97.7403 89.7078 115.753 89.7078 115.753C90.162 122.403 95.9198 127.43 102.556 126.974C109.192 126.519 114.208 120.746 113.754 114.099C113.754 114.099 112.162 91.6008 104.237 73.5945C97.4421 58.1539 85.9363 46.5868 69.9997 46.5868C54.0637 46.5868 42.5575 58.1539 35.7626 73.5945C27.8356 91.6008 26.2459 114.099 26.2459 114.099C25.7913 120.749 30.8074 126.519 37.4438 126.974C44.0801 127.43 49.838 122.403 50.2922 115.753C50.2922 115.753 51.4791 97.7437 57.8163 83.3425C59.226 80.1379 60.886 77.1139 62.9637 74.6768C64.8311 72.4876 67.0248 70.7419 69.9969 70.7419Z" fill="url(#paint10_radial_2175_990)"/>
<path fill-rule="evenodd" clip-rule="evenodd" d="M69.9969 70.7419C72.9717 70.7419 75.1654 72.4876 77.0357 74.6768C79.114 77.1139 80.7735 80.1351 82.1832 83.3425C88.5209 97.7403 89.7078 115.753 89.7078 115.753C90.162 122.403 95.9198 127.43 102.556 126.974C109.192 126.519 114.208 120.746 113.754 114.099C113.754 114.099 112.162 91.6008 104.237 73.5945C97.4421 58.1539 85.9363 46.5868 69.9997 46.5868C54.0637 46.5868 42.5575 58.1539 35.7626 73.5945C27.8356 91.6008 26.2459 114.099 26.2459 114.099C25.7913 120.749 30.8074 126.519 37.4438 126.974C44.0801 127.43 49.838 122.403 50.2922 115.753C50.2922 115.753 51.4791 97.7437 57.8163 83.3425C59.226 80.1379 60.886 77.1139 62.9637 74.6768C64.8311 72.4876 67.0248 70.7419 69.9969 70.7419Z" fill="url(#paint11_radial_2175_990)"/>
<path fill-rule="evenodd" clip-rule="evenodd" d="M69.9969 70.7419C72.9717 70.7419 75.1654 72.4876 77.0357 74.6768C79.114 77.1139 80.7735 80.1351 82.1832 83.3425C88.5209 97.7403 89.7078 115.753 89.7078 115.753C90.162 122.403 95.9198 127.43 102.556 126.974C109.192 126.519 114.208 120.746 113.754 114.099C113.754 114.099 112.162 91.6008 104.237 73.5945C97.4421 58.1539 85.9363 46.5868 69.9997 46.5868C54.0637 46.5868 42.5575 58.1539 35.7626 73.5945C27.8356 91.6008 26.2459 114.099 26.2459 114.099C25.7913 120.749 30.8074 126.519 37.4438 126.974C44.0801 127.43 49.838 122.403 50.2922 115.753C50.2922 115.753 51.4791 97.7437 57.8163 83.3425C59.226 80.1379 60.886 77.1139 62.9637 74.6768C64.8311 72.4876 67.0248 70.7419 69.9969 70.7419Z" fill="url(#paint12_radial_2175_990)"/>
<path fill-rule="evenodd" clip-rule="evenodd" d="M69.9969 70.7419C72.9717 70.7419 75.1654 72.4876 77.0357 74.6768C79.114 77.1139 80.7735 80.1351 82.1832 83.3425C88.5209 97.7403 89.7078 115.753 89.7078 115.753C90.162 122.403 95.9198 127.43 102.556 126.974C109.192 126.519 114.208 120.746 113.754 114.099C113.754 114.099 112.162 91.6008 104.237 73.5945C97.4421 58.1539 85.9363 46.5868 69.9997 46.5868C54.0637 46.5868 42.5575 58.1539 35.7626 73.5945C27.8356 91.6008 26.2459 114.099 26.2459 114.099C25.7913 120.749 30.8074 126.519 37.4438 126.974C44.0801 127.43 49.838 122.403 50.2922 115.753C50.2922 115.753 51.4791 97.7437 57.8163 83.3425C59.226 80.1379 60.886 77.1139 62.9637 74.6768C64.8311 72.4876 67.0248 70.7419 69.9969 70.7419Z" fill="url(#paint13_radial_2175_990)"/>
<path fill-rule="evenodd" clip-rule="evenodd" d="M49.7287 111.191L23.5161 30.3478C21.4626 24.0094 14.6585 20.5329 8.3303 22.5937C2.0052 24.6546 -1.46401 31.473 0.592514 37.8114L26.8053 118.654C28.8618 124.993 35.6659 128.469 41.9911 126.409C48.3161 124.348 51.7853 117.529 49.7287 111.191Z" fill="url(#paint14_linear_2175_990)"/>
<path fill-rule="evenodd" clip-rule="evenodd" d="M49.7287 111.191L23.5161 30.3478C21.4626 24.0094 14.6585 20.5329 8.3303 22.5937C2.0052 24.6546 -1.46401 31.473 0.592514 37.8114L26.8053 118.654C28.8618 124.993 35.6659 128.469 41.9911 126.409C48.3161 124.348 51.7853 117.529 49.7287 111.191Z" fill="url(#paint15_radial_2175_990)"/>
<path fill-rule="evenodd" clip-rule="evenodd" d="M49.7287 111.191L23.5161 30.3478C21.4626 24.0094 14.6585 20.5329 8.3303 22.5937C2.0052 24.6546 -1.46401 31.473 0.592514 37.8114L26.8053 118.654C28.8618 124.993 35.6659 128.469 41.9911 126.409C48.3161 124.348 51.7853 117.529 49.7287 111.191Z" fill="url(#paint16_linear_2175_990)"/>
<path fill-rule="evenodd" clip-rule="evenodd" d="M49.7287 111.191L23.5161 30.3478C21.4626 24.0094 14.6585 20.5329 8.3303 22.5937C2.0052 24.6546 -1.46401 31.473 0.592514 37.8114L26.8053 118.654C28.8618 124.993 35.6659 128.469 41.9911 126.409C48.3161 124.348 51.7853 117.529 49.7287 111.191Z" fill="url(#paint17_radial_2175_990)"/>
<path fill-rule="evenodd" clip-rule="evenodd" d="M49.7287 111.191L23.5161 30.3478C21.4626 24.0094 14.6585 20.5329 8.3303 22.5937C2.0052 24.6546 -1.46401 31.473 0.592514 37.8114L26.8053 118.654C28.8618 124.993 35.6659 128.469 41.9911 126.409C48.3161 124.348 51.7853 117.529 49.7287 111.191Z" fill="url(#paint18_radial_2175_990)"/>
<defs>
<linearGradient id="paint0_linear_2175_990" x1="153.427" y1="-4.48196" x2="114.175" y2="122.443" gradientUnits="userSpaceOnUse">
<stop stop-color="#4A4EFA"/>
<stop offset="0.548576" stop-color="#E63CFE"/>
</linearGradient>
<linearGradient id="paint1_linear_2175_990" x1="104.128" y1="68.6864" x2="126.364" y2="75.8842" gradientUnits="userSpaceOnUse">
<stop offset="0.160046" stop-color="#4A4EFA"/>
<stop offset="0.946031" stop-color="#4A4EFA" stop-opacity="0"/>
</linearGradient>
<linearGradient id="paint2_linear_2175_990" x1="107.498" y1="58.0144" x2="121.47" y2="62.483" gradientUnits="userSpaceOnUse">
<stop stop-color="#39FBBB"/>
<stop offset="1" stop-color="#39FBBB" stop-opacity="0"/>
</linearGradient>
<radialGradient id="paint3_radial_2175_990" cx="0" cy="0" r="1" gradientUnits="userSpaceOnUse" gradientTransform="translate(102.335 87.5768) rotate(-64.1652) scale(72.8539 72.8533)">
<stop offset="0.832168" stop-color="#4A4EFA" stop-opacity="0"/>
<stop offset="1" stop-color="#4A4EFA" stop-opacity="0.75"/>
</radialGradient>
<radialGradient id="paint4_radial_2175_990" cx="0" cy="0" r="1" gradientUnits="userSpaceOnUse" gradientTransform="translate(100.923 82.7682) scale(16.2424 34.7367)">
<stop offset="0.169047" stop-color="#11417A"/>
<stop offset="0.926198" stop-color="#4069D4" stop-opacity="0"/>
</radialGradient>
<radialGradient id="paint5_radial_2175_990" cx="0" cy="0" r="1" gradientUnits="userSpaceOnUse" gradientTransform="translate(119.723 127.003) rotate(-90) scale(53.7241 25.7478)">
<stop offset="0.34895" stop-color="#E63CFE"/>
<stop offset="1" stop-color="#E63CFE" stop-opacity="0"/>
</radialGradient>
<radialGradient id="paint6_radial_2175_990" cx="0" cy="0" r="1" gradientUnits="userSpaceOnUse" gradientTransform="translate(65.9151 88.9888) rotate(-85.7675) scale(55.3517 49.148)">
<stop stop-color="#39FBBB" stop-opacity="0.5"/>
<stop offset="0.688731" stop-color="#39FBBB"/>
<stop offset="1" stop-color="#39FBBB" stop-opacity="0"/>
</radialGradient>
<radialGradient id="paint7_radial_2175_990" cx="0" cy="0" r="1" gradientUnits="userSpaceOnUse" gradientTransform="translate(144.778 120.153) rotate(-122.629) scale(132.698 32.2832)">
<stop stop-color="#E63CFE"/>
<stop offset="1" stop-color="#E63CFE" stop-opacity="0"/>
</radialGradient>
<radialGradient id="paint8_radial_2175_990" cx="0" cy="0" r="1" gradientUnits="userSpaceOnUse" gradientTransform="translate(68.1146 106.073) rotate(-85.0199) scale(59.7116 51.3637)">
<stop offset="0.556793" stop-color="#4A4EFA"/>
<stop offset="0.934777" stop-color="#4A4EFA" stop-opacity="0"/>
</radialGradient>
<radialGradient id="paint9_radial_2175_990" cx="0" cy="0" r="1" gradientUnits="userSpaceOnUse" gradientTransform="translate(51.9225 124.145) rotate(-68.6369) scale(62.3579 37.2133)">
<stop offset="0.61345" stop-color="#E63CFE"/>
<stop offset="1" stop-color="#E63CFE" stop-opacity="0"/>
</radialGradient>
<radialGradient id="paint10_radial_2175_990" cx="0" cy="0" r="1" gradientUnits="userSpaceOnUse" gradientTransform="translate(112.258 81.9156) rotate(176.233) scale(77.4247 195.732)">
<stop offset="0.813918" stop-color="#4A98D0" stop-opacity="0"/>
<stop offset="0.972647" stop-color="#11417A"/>
</radialGradient>
<radialGradient id="paint11_radial_2175_990" cx="0" cy="0" r="1" gradientUnits="userSpaceOnUse" gradientTransform="translate(47.2728 127.003) rotate(-90) scale(55.4902 46.0411)">
<stop offset="0.457769" stop-color="#FFAE3C"/>
<stop offset="1" stop-color="#FFAE3C" stop-opacity="0"/>
</radialGradient>
<radialGradient id="paint12_radial_2175_990" cx="0" cy="0" r="1" gradientUnits="userSpaceOnUse" gradientTransform="translate(114.559 127.003) rotate(-90) scale(50.0167 50.0161)">
<stop offset="0.191715" stop-color="#E63CFE"/>
<stop offset="1" stop-color="#E63CFE" stop-opacity="0"/>
</radialGradient>
<radialGradient id="paint13_radial_2175_990" cx="0" cy="0" r="1" gradientUnits="userSpaceOnUse" gradientTransform="translate(85.2163 127.003) rotate(-90) scale(37.6374 17.8783)">
<stop offset="0.173611" stop-color="#FFAE3C"/>
<stop offset="1" stop-color="#FFAE3C" stop-opacity="0"/>
</radialGradient>
<linearGradient id="paint14_linear_2175_990" x1="-4.11853" y1="27.0456" x2="29.7257" y2="132.339" gradientUnits="userSpaceOnUse">
<stop offset="0.169527" stop-color="#E63CFE"/>
<stop offset="0.708644" stop-color="#FFAE3C"/>
</linearGradient>
<radialGradient id="paint15_radial_2175_990" cx="0" cy="0" r="1" gradientUnits="userSpaceOnUse" gradientTransform="translate(23.5869 54.0928) rotate(161.042) scale(16.8856 82.4539)">
<stop offset="0.120383" stop-color="#4A4EFA"/>
<stop offset="1" stop-color="#4A4EFA" stop-opacity="0"/>
</radialGradient>
<linearGradient id="paint16_linear_2175_990" x1="38.4375" y1="76.2582" x2="33.698" y2="77.8097" gradientUnits="userSpaceOnUse">
<stop stop-color="#E63CFE" stop-opacity="0.33"/>
<stop offset="1" stop-color="#E63CFE" stop-opacity="0"/>
</linearGradient>
<radialGradient id="paint17_radial_2175_990" cx="0" cy="0" r="1" gradientUnits="userSpaceOnUse" gradientTransform="translate(50.3213 127.002) rotate(-90) scale(54.2514 59.2653)">
<stop offset="0.465389" stop-color="#FFAE3C"/>
<stop offset="0.92565" stop-color="#FFAE3C" stop-opacity="0"/>
</radialGradient>
<radialGradient id="paint18_radial_2175_990" cx="0" cy="0" r="1" gradientUnits="userSpaceOnUse" gradientTransform="translate(50.3213 127.002) rotate(-90) scale(118.704 118.703)">
<stop offset="0.843756" stop-color="#E63CFE" stop-opacity="0"/>
<stop offset="1" stop-color="#E63CFE"/>
</radialGradient>
</defs>
</svg>
